<?xml version="1.0" encoding="UTF-8" standalone="no"?>
<svg
   xmlns:dc="http://purl.org/dc/elements/1.1/"
   xmlns:cc="http://creativecommons.org/ns#"
   xmlns:rdf="http://www.w3.org/1999/02/22-rdf-syntax-ns#"
   xmlns:svg="http://www.w3.org/2000/svg"
   xmlns="http://www.w3.org/2000/svg"
   xmlns:sodipodi="http://sodipodi.sourceforge.net/DTD/sodipodi-0.dtd"
   xmlns:inkscape="http://www.inkscape.org/namespaces/inkscape"
   width="2.6927083in"
   stroke-miterlimit="10"
   font-weight="normal"
   viewBox="0 0 258.49999 146.5"
   height="1.5260416in"
   font-style="normal"
   font-size="12"
   version="1.1"
   id="svg4797"
   sodipodi:docname="sm.svg"
   style="font-style:normal;font-weight:normal;font-size:12px;font-family:Arial;color-interpolation:auto;fill:#000000;fill-opacity:1;stroke:#000000;stroke-width:1;stroke-linecap:square;stroke-linejoin:miter;stroke-miterlimit:10;stroke-dasharray:none;stroke-dashoffset:0;stroke-opacity:1;color-rendering:auto;image-rendering:auto;shape-rendering:auto;text-rendering:auto"
   inkscape:version="0.92.0 r">
  <metadata
     id="metadata4801">
    <rdf:RDF>
      <cc:Work
         rdf:about="">
        <dc:format>image/svg+xml</dc:format>
        <dc:type
           rdf:resource="http://purl.org/dc/dcmitype/StillImage" />
        <dc:title></dc:title>
      </cc:Work>
    </rdf:RDF>
  </metadata>
  <sodipodi:namedview
     pagecolor="#ffffff"
     bordercolor="#666666"
     borderopacity="1"
     objecttolerance="10"
     gridtolerance="10"
     guidetolerance="10"
     inkscape:pageopacity="0"
     inkscape:pageshadow="2"
     inkscape:window-width="1353"
     inkscape:window-height="768"
     id="namedview4799"
     showgrid="false"
     fit-margin-top="0"
     fit-margin-left="0"
     fit-margin-right="0"
     fit-margin-bottom="0"
     inkscape:zoom="1"
     inkscape:cx="79.967871"
     inkscape:cy="52.233939"
     inkscape:window-x="497"
     inkscape:window-y="134"
     inkscape:window-maximized="0"
     inkscape:current-layer="svg4797" />
  <!--Generated by the Batik Graphics2D SVG Generator
 This is MagicDraw diagram.-->
  <defs
     id="genericDefs">
    <defs
       id="defs1">
      <linearGradient
         spreadMethod="pad"
         id="linearGradient1"
         y2="248"
         y1="224"
         x2="199"
         gradientUnits="userSpaceOnUse"
         x1="119">
        <stop
           id="stop4664"
           offset="0%"
           stop-color="rgb(255,204,153)"
           stop-opacity="1" />
        <stop
           id="stop4666"
           offset="100%"
           stop-color="rgb(255,255,218)"
           stop-opacity="1" />
      </linearGradient>
      <linearGradient
         spreadMethod="pad"
         id="linearGradient2"
         y2="192"
         y1="168"
         x2="199"
         gradientUnits="userSpaceOnUse"
         x1="119">
        <stop
           id="stop4669"
           offset="0%"
           stop-color="rgb(255,204,153)"
           stop-opacity="1" />
        <stop
           id="stop4671"
           offset="100%"
           stop-color="rgb(255,255,218)"
           stop-opacity="1" />
      </linearGradient>
      <linearGradient
         spreadMethod="pad"
         id="linearGradient3"
         y2="248"
         y1="224"
         x2="374"
         gradientUnits="userSpaceOnUse"
         x1="294">
        <stop
           id="stop4674"
           offset="0%"
           stop-color="rgb(255,204,153)"
           stop-opacity="1" />
        <stop
           id="stop4676"
           offset="100%"
           stop-color="rgb(255,255,218)"
           stop-opacity="1" />
      </linearGradient>
      <linearGradient
         spreadMethod="pad"
         id="linearGradient4"
         y2="311"
         y1="287"
         x2="304"
         gradientUnits="userSpaceOnUse"
         x1="168">
        <stop
           id="stop4679"
           offset="0%"
           stop-color="rgb(255,204,153)"
           stop-opacity="1" />
        <stop
           id="stop4681"
           offset="100%"
           stop-color="rgb(255,255,218)"
           stop-opacity="1" />
      </linearGradient>
      <clipPath
         id="clipPath1"
         clipPathUnits="userSpaceOnUse">
        <path
           id="path4684"
           d="M 0,-5 H 548 V 448 H 0 Z"
           inkscape:connector-curvature="0" />
      </clipPath>
      <clipPath
         id="clipPath2"
         clipPathUnits="userSpaceOnUse">
        <path
           id="path4687"
           d="m -98.8354,242.4703 135.7798,-510.243 413.606,110.064 -135.7798,510.2429 z"
           inkscape:connector-curvature="0" />
      </clipPath>
    </defs>
  </defs>
  <path
     d="m -619.3203,191 6.4922,-11.4531 h 1.8047 L -609.1328,191 h -1.4844 l -0.5547,-3.2969 h -4.6328 L -617.6406,191 Z m 4.1719,-4.4766 h 3.789 l -0.4453,-2.875 q -0.2578,-1.7109 -0.3203,-2.8515 -0.3906,0.9843 -1.1406,2.3359 z m 13.4062,1.4532 1.4141,0.1484 q -0.5313,1.5547 -1.5117,2.3086 -0.9805,0.7539 -2.2305,0.7539 -1.3516,0 -2.1914,-0.875 -0.8399,-0.875 -0.8399,-2.4453 0,-1.3594 0.5391,-2.6719 0.5391,-1.3125 1.543,-1.9961 1.0039,-0.6836 2.2929,-0.6836 1.336,0 2.1172,0.7539 0.7813,0.7539 0.7813,1.9961 l -1.3907,0.0938 q -0.008,-0.7891 -0.457,-1.2344 -0.4492,-0.4453 -1.1836,-0.4453 -0.8515,0 -1.4765,0.5391 -0.625,0.539 -0.9805,1.6367 -0.3555,1.0976 -0.3555,2.1133 0,1.0624 0.4688,1.5937 0.4687,0.5313 1.1562,0.5313 0.6875,0 1.3164,-0.5235 0.6289,-0.5234 0.9883,-1.5937 z m 7.8672,1.9922 q -0.7344,0.6328 -1.4141,0.9257 -0.6797,0.293 -1.4531,0.293 -1.1484,0 -1.8516,-0.6758 -0.7031,-0.6758 -0.7031,-1.7305 0,-0.6953 0.3164,-1.2304 0.3164,-0.5352 0.8399,-0.8594 0.5234,-0.3242 1.2812,-0.4648 0.4766,-0.0938 1.8086,-0.1485 1.332,-0.0547 1.9102,-0.2812 0.164,-0.5781 0.164,-0.961 0,-0.4921 -0.3593,-0.7734 -0.4922,-0.3906 -1.4375,-0.3906 -0.8907,0 -1.4571,0.3945 -0.5664,0.3945 -0.8242,1.1211 l -1.4297,-0.125 q 0.4375,-1.2344 1.3867,-1.8906 0.9493,-0.6563 2.3946,-0.6563 1.539,0 2.4375,0.7344 0.6875,0.5469 0.6875,1.4219 0,0.664 -0.1953,1.539 l -0.461,2.0625 q -0.2187,0.9844 -0.2187,1.6016 0,0.3906 0.1719,1.125 h -1.4297 q -0.1172,-0.4062 -0.1641,-1.0312 z m 0.5234,-3.1719 q -0.2968,0.1172 -0.6367,0.1797 -0.3398,0.0625 -1.1367,0.1328 -1.2344,0.1094 -1.7422,0.2773 -0.5078,0.168 -0.7656,0.5352 -0.2578,0.3672 -0.2578,0.8125 0,0.5937 0.4101,0.9765 0.4102,0.3829 1.168,0.3829 0.7031,0 1.3516,-0.3711 0.6484,-0.3711 1.0234,-1.0352 0.375,-0.6641 0.5859,-1.8906 z m 8.4766,3 q -1.2109,1.3906 -2.5312,1.3906 -1.1797,0 -1.9649,-0.8711 -0.7851,-0.8711 -0.7851,-2.5273 0,-1.5157 0.621,-2.7696 0.6211,-1.2539 1.5547,-1.8789 0.9336,-0.625 1.8711,-0.625 1.5469,0 2.336,1.4922 l 0.9375,-4.4609 h 1.4062 L -583.8203,191 h -1.3047 z m -3.875,-2.2735 q 0,0.8672 0.1719,1.3672 0.1719,0.5 0.5859,0.8321 0.4141,0.332 0.9922,0.332 0.9609,0 1.7422,-1 1.0469,-1.3281 1.0469,-3.2813 0,-0.9843 -0.5157,-1.539 -0.5156,-0.5547 -1.2968,-0.5547 -0.5078,0 -0.9258,0.2265 -0.418,0.2266 -0.8281,0.7696 -0.4102,0.543 -0.6915,1.3789 -0.2812,0.8359 -0.2812,1.4687 z m 13.375,0.6563 1.375,0.1406 q -0.2969,1.0235 -1.3633,1.9453 -1.0664,0.9219 -2.5429,0.9219 -0.9219,0 -1.6915,-0.4258 -0.7695,-0.4258 -1.1718,-1.2383 -0.4024,-0.8125 -0.4024,-1.8515 0,-1.3594 0.6289,-2.6367 0.6289,-1.2774 1.6289,-1.8985 1,-0.6211 2.1641,-0.6211 1.4844,0 2.3711,0.9219 0.8867,0.9219 0.8867,2.5156 0,0.6094 -0.1094,1.25 h -6.1093 q -0.0313,0.2422 -0.0313,0.4375 0,1.1641 0.5352,1.7774 0.5351,0.6132 1.3086,0.6132 0.7265,0 1.4296,-0.4765 0.7032,-0.4766 1.0938,-1.375 z m -4.1094,-2.0547 h 4.6563 q 0.008,-0.2188 0.008,-0.3125 0,-1.0625 -0.5313,-1.6289 -0.5312,-0.5664 -1.3672,-0.5664 -0.9062,0 -1.6523,0.625 -0.7461,0.625 -1.1133,1.8828 z m 7.0078,4.875 1.7344,-8.2969 h 1.4141 l -0.2891,1.3672 q 0.7891,-0.8828 1.4102,-1.2187 0.6211,-0.336 1.3476,-0.336 0.7735,0 1.293,0.4102 0.5195,0.4101 0.6836,1.1445 0.6328,-0.7812 1.332,-1.168 0.6992,-0.3867 1.4727,-0.3867 1.039,0 1.5586,0.4922 0.5195,0.4922 0.5195,1.3828 0,0.3828 -0.1797,1.2656 L -561.2969,191 h -1.414 l 1.1406,-5.4844 q 0.1484,-0.6718 0.1484,-0.9609 0,-0.4063 -0.2578,-0.6406 -0.2578,-0.2344 -0.7265,-0.2344 -0.6329,0 -1.2891,0.3828 -0.6563,0.3828 -1.0195,1.0039 -0.3633,0.6211 -0.6368,1.9102 L -566.1953,191 h -1.4141 l 1.1719,-5.6016 q 0.125,-0.5703 0.125,-0.8125 0,-0.4062 -0.2539,-0.6562 -0.2539,-0.25 -0.6602,-0.25 -0.6015,0 -1.2617,0.3828 -0.6601,0.3828 -1.0742,1.0664 -0.4141,0.6836 -0.6797,1.9492 L -571.0625,191 Z m 15.0157,-9.8516 0.3359,-1.6015 h 1.4062 l -0.3359,1.6015 z m -2.0625,9.8516 1.7343,-8.2969 h 1.4141 L -558.1094,191 Z m 9.7812,-3.0234 1.4141,0.1484 q -0.5313,1.5547 -1.5117,2.3086 -0.9805,0.7539 -2.2305,0.7539 -1.3516,0 -2.1914,-0.875 -0.8399,-0.875 -0.8399,-2.4453 0,-1.3594 0.5391,-2.6719 0.5391,-1.3125 1.543,-1.9961 1.0039,-0.6836 2.2929,-0.6836 1.336,0 2.1172,0.7539 0.7813,0.7539 0.7813,1.9961 l -1.3907,0.0938 q -0.008,-0.7891 -0.457,-1.2344 -0.4492,-0.4453 -1.1836,-0.4453 -0.8515,0 -1.4765,0.5391 -0.625,0.539 -0.9805,1.6367 -0.3555,1.0976 -0.3555,2.1133 0,1.0624 0.4688,1.5937 0.4687,0.5313 1.1562,0.5313 0.6875,0 1.3164,-0.5235 0.6289,-0.5234 0.9883,-1.5937 z m 9.9297,3.0234 -2.2031,-11.4531 h 1.4765 l 1.3282,6.8281 q 0.3671,1.8594 0.4765,3 0.7188,-1.4688 1.1797,-2.3281 l 4.0859,-7.5 h 1.5782 L -538.1719,191 Z m 13.4375,-2.8203 1.375,0.1406 q -0.2969,1.0235 -1.3633,1.9453 -1.0664,0.9219 -2.5429,0.9219 -0.9219,0 -1.6915,-0.4258 -0.7695,-0.4258 -1.1718,-1.2383 -0.4024,-0.8125 -0.4024,-1.8515 0,-1.3594 0.6289,-2.6367 0.6289,-1.2774 1.6289,-1.8985 1,-0.6211 2.1641,-0.6211 1.4844,0 2.3711,0.9219 0.8867,0.9219 0.8867,2.5156 0,0.6094 -0.1094,1.25 h -6.1093 q -0.0313,0.2422 -0.0313,0.4375 0,1.1641 0.5352,1.7774 0.5351,0.6132 1.3086,0.6132 0.7265,0 1.4296,-0.4765 0.7032,-0.4766 1.0938,-1.375 z m -4.1094,-2.0547 h 4.6563 q 0.008,-0.2188 0.008,-0.3125 0,-1.0625 -0.5313,-1.6289 -0.5312,-0.5664 -1.3672,-0.5664 -0.9062,0 -1.6523,0.625 -0.7461,0.625 -1.1133,1.8828 z m 7.0156,4.875 1.7344,-8.2969 h 1.25 l -0.3515,1.6953 q 0.6406,-0.9609 1.2539,-1.4218 0.6132,-0.461 1.2539,-0.461 0.4219,0 1.039,0.3047 l -0.5781,1.3125 q -0.3672,-0.2656 -0.8047,-0.2656 -0.7422,0 -1.5234,0.8281 -0.7813,0.8281 -1.2266,2.9766 L -522.125,191 Z m 5.1329,-2.8359 1.414,-0.086 q 0,0.6094 0.1875,1.0391 0.1875,0.4297 0.6914,0.7031 0.5039,0.2735 1.1758,0.2735 0.9375,0 1.4063,-0.375 0.4687,-0.375 0.4687,-0.8829 0,-0.3671 -0.2812,-0.6953 -0.2891,-0.3281 -1.4102,-0.8086 -1.1211,-0.4804 -1.4336,-0.6758 -0.5234,-0.3203 -0.789,-0.7539 -0.2657,-0.4335 -0.2657,-0.9961 0,-0.9843 0.7813,-1.6874 0.7812,-0.7032 2.1875,-0.7032 1.5625,0 2.3789,0.7227 0.8164,0.7226 0.8476,1.9023 l -1.3828,0.0938 q -0.0312,-0.75 -0.5312,-1.1875 -0.5,-0.4375 -1.4141,-0.4375 -0.7344,0 -1.1406,0.3359 -0.4063,0.3359 -0.4063,0.7266 0,0.3906 0.3516,0.6875 0.2344,0.2031 1.2109,0.625 1.625,0.7031 2.0469,1.1094 0.6719,0.6484 0.6719,1.5781 0,0.6172 -0.3789,1.2109 -0.3789,0.5938 -1.1563,0.9492 -0.7773,0.3555 -1.832,0.3555 -1.4375,0 -2.4453,-0.7109 -1.0078,-0.711 -0.9531,-2.3125 z m 9.875,-7.0157 0.3359,-1.6015 h 1.4062 l -0.3359,1.6015 z m -2.0625,9.8516 1.7343,-8.2969 h 1.4141 L -509.1094,191 Z m 4.3046,-3.1484 q 0,-2.4297 1.4297,-4.0235 1.1797,-1.3125 3.0938,-1.3125 1.5,0 2.418,0.9375 0.9179,0.9375 0.9179,2.5313 0,1.4297 -0.5781,2.6601 -0.5781,1.2305 -1.6445,1.8867 -1.0664,0.6563 -2.2461,0.6563 -0.9688,0 -1.7617,-0.4141 -0.793,-0.414 -1.211,-1.1718 -0.418,-0.7578 -0.418,-1.75 z m 1.4141,-0.1407 q 0,1.1719 0.5625,1.7774 0.5625,0.6055 1.4297,0.6055 0.4531,0 0.8984,-0.1836 0.4453,-0.1836 0.8282,-0.5586 0.3828,-0.375 0.6523,-0.8555 0.2695,-0.4805 0.4336,-1.0352 0.2422,-0.7734 0.2422,-1.4843 0,-1.125 -0.5664,-1.7461 -0.5664,-0.6211 -1.4258,-0.6211 -0.6641,0 -1.2109,0.3164 -0.5469,0.3164 -0.9883,0.9258 -0.4414,0.6093 -0.6485,1.4179 -0.207,0.8086 -0.207,1.4414 z m 7.3359,3.2891 1.7344,-8.2969 h 1.2813 l -0.3047,1.4453 q 0.8359,-0.8515 1.5625,-1.2422 0.7265,-0.3906 1.4844,-0.3906 1.0078,0 1.582,0.5469 0.5742,0.5469 0.5742,1.4609 0,0.461 -0.2031,1.4532 L -490.8125,191 h -1.4141 l 1.1016,-5.2578 q 0.1641,-0.7656 0.1641,-1.1328 0,-0.4141 -0.2852,-0.6719 -0.2851,-0.2578 -0.8242,-0.2578 -1.0859,0 -1.9336,0.7812 -0.8477,0.7813 -1.2461,2.6797 L -496.0547,191 Z m 13.1954,0 1.5078,-7.2031 h -1.2656 l 0.2265,-1.0938 h 1.2656 l 0.2422,-1.1797 q 0.1875,-0.8828 0.3867,-1.2734 0.1993,-0.3906 0.6485,-0.6445 0.4492,-0.2539 1.2226,-0.2539 0.5391,0 1.5625,0.2265 l -0.2578,1.2344 q -0.7187,-0.1875 -1.2031,-0.1875 -0.4141,0 -0.6289,0.207 -0.2148,0.2071 -0.3711,0.9805 l -0.1875,0.8906 h 1.5781 l -0.2265,1.0938 h -1.5782 L -482.8594,191 Z m 4.0546,-3.1484 q 0,-2.4297 1.4297,-4.0235 1.1797,-1.3125 3.0938,-1.3125 1.5,0 2.418,0.9375 0.9179,0.9375 0.9179,2.5313 0,1.4297 -0.5781,2.6601 -0.5781,1.2305 -1.6445,1.8867 -1.0664,0.6563 -2.2461,0.6563 -0.9688,0 -1.7617,-0.4141 -0.793,-0.414 -1.211,-1.1718 -0.418,-0.7578 -0.418,-1.75 z m 1.4141,-0.1407 q 0,1.1719 0.5625,1.7774 0.5625,0.6055 1.4297,0.6055 0.4531,0 0.8984,-0.1836 0.4453,-0.1836 0.8282,-0.5586 0.3828,-0.375 0.6523,-0.8555 0.2695,-0.4805 0.4336,-1.0352 0.2422,-0.7734 0.2422,-1.4843 0,-1.125 -0.5664,-1.7461 -0.5664,-0.6211 -1.4258,-0.6211 -0.6641,0 -1.2109,0.3164 -0.5469,0.3164 -0.9883,0.9258 -0.4414,0.6093 -0.6485,1.4179 -0.207,0.8086 -0.207,1.4414 z m 7.3359,3.2891 1.7344,-8.2969 h 1.25 l -0.3515,1.6953 q 0.6406,-0.9609 1.2539,-1.4218 0.6132,-0.461 1.2539,-0.461 0.4219,0 1.039,0.3047 l -0.5781,1.3125 q -0.3672,-0.2656 -0.8047,-0.2656 -0.7422,0 -1.5234,0.8281 -0.7813,0.8281 -1.2266,2.9766 L -470.125,191 Z m 12.1016,0 2.1172,-10.1484 h -3.7578 l 0.2734,-1.3047 h 9.0156 l -0.2734,1.3047 h -3.7266 L -457.8359,191 Z m 12.9922,-2.8203 1.375,0.1406 q -0.2969,1.0235 -1.3633,1.9453 -1.0664,0.9219 -2.5429,0.9219 -0.9219,0 -1.6915,-0.4258 -0.7695,-0.4258 -1.1718,-1.2383 -0.4024,-0.8125 -0.4024,-1.8515 0,-1.3594 0.6289,-2.6367 0.6289,-1.2774 1.6289,-1.8985 1,-0.6211 2.1641,-0.6211 1.4844,0 2.3711,0.9219 0.8867,0.9219 0.8867,2.5156 0,0.6094 -0.1094,1.25 h -6.1093 q -0.0313,0.2422 -0.0313,0.4375 0,1.1641 0.5352,1.7774 0.5351,0.6132 1.3086,0.6132 0.7265,0 1.4296,-0.4765 0.7032,-0.4766 1.0938,-1.375 z m -4.1094,-2.0547 h 4.6563 q 0.008,-0.2188 0.008,-0.3125 0,-1.0625 -0.5313,-1.6289 -0.5312,-0.5664 -1.3672,-0.5664 -0.9062,0 -1.6523,0.625 -0.7461,0.625 -1.1133,1.8828 z m 12.6094,3.8438 q -0.7344,0.6328 -1.4141,0.9257 -0.6797,0.293 -1.4531,0.293 -1.1484,0 -1.8516,-0.6758 -0.7031,-0.6758 -0.7031,-1.7305 0,-0.6953 0.3164,-1.2304 0.3164,-0.5352 0.8399,-0.8594 0.5234,-0.3242 1.2812,-0.4648 0.4766,-0.0938 1.8086,-0.1485 1.332,-0.0547 1.9102,-0.2812 0.164,-0.5781 0.164,-0.961 0,-0.4921 -0.3593,-0.7734 -0.4922,-0.3906 -1.4375,-0.3906 -0.8907,0 -1.4571,0.3945 -0.5664,0.3945 -0.8242,1.1211 l -1.4297,-0.125 q 0.4375,-1.2344 1.3867,-1.8906 0.9493,-0.6563 2.3946,-0.6563 1.539,0 2.4375,0.7344 0.6875,0.5469 0.6875,1.4219 0,0.664 -0.1953,1.539 l -0.461,2.0625 q -0.2187,0.9844 -0.2187,1.6016 0,0.3906 0.1719,1.125 h -1.4297 q -0.1172,-0.4062 -0.1641,-1.0312 z m 0.5234,-3.1719 q -0.2968,0.1172 -0.6367,0.1797 -0.3398,0.0625 -1.1367,0.1328 -1.2344,0.1094 -1.7422,0.2773 -0.5078,0.168 -0.7656,0.5352 -0.2578,0.3672 -0.2578,0.8125 0,0.5937 0.4101,0.9765 0.4102,0.3829 1.168,0.3829 0.7031,0 1.3516,-0.3711 0.6484,-0.3711 1.0234,-1.0352 0.375,-0.6641 0.5859,-1.8906 z m 8.6094,1.1797 1.4141,0.1484 q -0.5313,1.5547 -1.5117,2.3086 -0.9805,0.7539 -2.2305,0.7539 -1.3516,0 -2.1914,-0.875 -0.8399,-0.875 -0.8399,-2.4453 0,-1.3594 0.5391,-2.6719 0.5391,-1.3125 1.543,-1.9961 1.0039,-0.6836 2.2929,-0.6836 1.336,0 2.1172,0.7539 0.7813,0.7539 0.7813,1.9961 l -1.3907,0.0938 q -0.008,-0.7891 -0.457,-1.2344 -0.4492,-0.4453 -1.1836,-0.4453 -0.8515,0 -1.4765,0.5391 -0.625,0.539 -0.9805,1.6367 -0.3555,1.0976 -0.3555,2.1133 0,1.0624 0.4688,1.5937 0.4687,0.5313 1.1562,0.5313 0.6875,0 1.3164,-0.5235 0.6289,-0.5234 0.9883,-1.5937 z m 2.2734,3.0234 2.3907,-11.4531 h 1.414 l -0.914,4.3984 q 0.789,-0.7656 1.4687,-1.0976 0.6797,-0.3321 1.3985,-0.3321 1.0312,0 1.6015,0.543 0.5703,0.543 0.5703,1.4336 0,0.4375 -0.25,1.6094 L -419.8125,191 h -1.4141 l 1.0547,-5.0234 q 0.2266,-1.0938 0.2266,-1.375 0,-0.4063 -0.2813,-0.6641 -0.2812,-0.2578 -0.8125,-0.2578 -0.7656,0 -1.4609,0.4023 -0.6953,0.4024 -1.0898,1.1016 -0.3946,0.6992 -0.7227,2.2539 L -425.0547,191 Z m 11.0079,-9.8516 0.3359,-1.6015 h 1.4062 l -0.3359,1.6015 z m -2.0625,9.8516 1.7343,-8.2969 h 1.4141 L -416.1094,191 Z m 4.0546,0 1.7344,-8.2969 h 1.2813 l -0.3047,1.4453 q 0.8359,-0.8515 1.5625,-1.2422 0.7265,-0.3906 1.4844,-0.3906 1.0078,0 1.582,0.5469 0.5742,0.5469 0.5742,1.4609 0,0.461 -0.2031,1.4532 L -406.8125,191 h -1.4141 l 1.1016,-5.2578 q 0.1641,-0.7656 0.1641,-1.1328 0,-0.4141 -0.2852,-0.6719 -0.2851,-0.2578 -0.8242,-0.2578 -1.0859,0 -1.9336,0.7812 -0.8477,0.7813 -1.2461,2.6797 L -412.0547,191 Z m 8.9219,0.75 1.4297,0.1328 q -0.0156,0.4844 0.1172,0.7266 0.1328,0.2422 0.4219,0.375 0.3828,0.1718 0.9922,0.1718 1.2812,0 1.8437,-0.664 0.3672,-0.4453 0.6797,-1.9375 l 0.1406,-0.6719 q -1.1015,1.1172 -2.3437,1.1172 -1.2578,0 -2.1055,-0.9258 -0.8477,-0.9258 -0.8477,-2.6211 0,-1.3984 0.668,-2.5703 0.668,-1.1719 1.5899,-1.7695 0.9218,-0.5977 1.8984,-0.5977 1.6328,0 2.5156,1.5469 l 0.2813,-1.3594 h 1.2968 l -1.6718,8.0078 q -0.2735,1.3203 -0.7188,2.0586 -0.4453,0.7383 -1.2383,1.1446 -0.7929,0.4062 -1.832,0.4062 -1,0 -1.7226,-0.2578 -0.7227,-0.2578 -1.0782,-0.7539 -0.3554,-0.4961 -0.3554,-1.1367 0,-0.1953 0.039,-0.4219 z m 1.7657,-4.4219 q 0,0.8516 0.164,1.2813 0.2344,0.6015 0.668,0.9179 0.4336,0.3165 0.9648,0.3165 0.6953,0 1.3828,-0.4883 0.6875,-0.4883 1.1133,-1.5117 0.4258,-1.0235 0.4258,-1.9532 0,-1.0234 -0.5664,-1.6289 -0.5664,-0.6055 -1.4023,-0.6055 -0.5157,0 -1,0.2774 -0.4844,0.2773 -0.9024,0.8437 -0.418,0.5665 -0.6328,1.3555 -0.2148,0.7891 -0.2148,1.1953 z m 12.2421,-1.125 q 0,-3.0625 1.7696,-4.957 1.7695,-1.8945 4.2929,-1.8945 2.1407,0 3.4883,1.3945 1.3477,1.3945 1.3477,3.7383 0,1.6718 -0.6797,3.1015 -0.5078,1.0703 -1.2813,1.8477 -0.7734,0.7773 -1.6562,1.1992 -1.1719,0.5625 -2.4844,0.5625 -1.375,0 -2.5039,-0.6562 -1.1289,-0.6563 -1.7109,-1.8321 -0.5821,-1.1758 -0.5821,-2.5039 z m 1.5079,0.0781 q 0,1.0079 0.4179,1.8516 0.418,0.8438 1.2461,1.3203 0.8281,0.4766 1.7422,0.4766 0.8828,0 1.6797,-0.418 0.7969,-0.4179 1.4258,-1.164 0.6289,-0.7461 0.9922,-1.836 0.3632,-1.0898 0.3632,-2.1445 0,-1.711 -0.957,-2.7266 -0.957,-1.0156 -2.3633,-1.0156 -1.7968,0 -3.1718,1.5352 -1.375,1.5351 -1.375,4.121 z m 9.5624,4.7188 1.7344,-8.2969 h 1.2813 l -0.3047,1.4453 q 0.8359,-0.8515 1.5625,-1.2422 0.7265,-0.3906 1.4844,-0.3906 1.0078,0 1.582,0.5469 0.5742,0.5469 0.5742,1.4609 0,0.461 -0.2031,1.4532 L -372.8125,191 h -1.4141 l 1.1016,-5.2578 q 0.1641,-0.7656 0.1641,-1.1328 0,-0.4141 -0.2852,-0.6719 -0.2851,-0.2578 -0.8242,-0.2578 -1.0859,0 -1.9336,0.7812 -0.8477,0.7813 -1.2461,2.6797 L -378.0547,191 Z m 8.8907,0 2.3906,-11.4531 h 1.4141 L -369.1641,191 Z m 3.5781,3.2031 0.0859,-1.3281 q 0.4375,0.125 0.8516,0.125 0.4297,0 0.6953,-0.1953 0.3438,-0.2578 0.75,-0.9688 l 0.4531,-0.8125 -1.3828,-8.3203 h 1.3907 l 0.625,4.1953 q 0.1874,1.2422 0.3203,2.4844 l 3.7109,-6.6797 h 1.4766 l -5.2891,9.3985 q -0.7656,1.375 -1.3594,1.8203 -0.5937,0.4453 -1.3672,0.4453 -0.4921,0 -0.9609,-0.1641 z"
     clip-path="url(#clipPath2)"
     id="path4699"
     inkscape:connector-curvature="0"
     style="font-style:italic;font-size:medium;fill:#dddddd;stroke:none;text-rendering:geometricPrecision"
     transform="rotate(75.0985,157.24709,30.446472)" />
  <path
     d="m -609.3516,204.9688 1.5157,0.2109 q -0.7188,1.9844 -2.0938,3 -1.375,1.0156 -3.0859,1.0156 -2.086,0 -3.3086,-1.2734 -1.2227,-1.2735 -1.2227,-3.6485 0,-3.0937 1.8594,-5.1172 1.6563,-1.8046 4.1172,-1.8046 1.8203,0 2.9492,0.9765 1.1289,0.9766 1.3086,2.625 l -1.4297,0.1328 q -0.2266,-1.2421 -0.9336,-1.8554 -0.707,-0.6133 -1.8242,-0.6133 -2.1016,0 -3.3984,1.8672 -1.125,1.6094 -1.125,3.8203 0,1.7656 0.8672,2.6953 0.8671,0.9297 2.2578,0.9297 1.1875,0 2.1484,-0.7735 0.9609,-0.7734 1.3984,-2.1874 z m 3.1328,0.8828 q 0,-2.4297 1.4297,-4.0235 1.1797,-1.3125 3.0938,-1.3125 1.5,0 2.418,0.9375 0.9179,0.9375 0.9179,2.5313 0,1.4297 -0.5781,2.6601 -0.5781,1.2305 -1.6445,1.8867 -1.0664,0.6563 -2.2461,0.6563 -0.9688,0 -1.7617,-0.4141 -0.793,-0.414 -1.211,-1.1718 -0.418,-0.7578 -0.418,-1.75 z m 1.4141,-0.1407 q 0,1.1719 0.5625,1.7774 0.5625,0.6055 1.4297,0.6055 0.4531,0 0.8984,-0.1836 0.4453,-0.1836 0.8282,-0.5586 0.3828,-0.375 0.6523,-0.8555 0.2695,-0.4805 0.4336,-1.0352 0.2422,-0.7734 0.2422,-1.4843 0,-1.125 -0.5664,-1.7461 -0.5664,-0.6211 -1.4258,-0.6211 -0.6641,0 -1.2109,0.3164 -0.5469,0.3164 -0.9883,0.9258 -0.4414,0.6093 -0.6485,1.4179 -0.207,0.8086 -0.207,1.4414 z m 7.3281,3.2891 1.7344,-8.2969 h 1.4141 l -0.2891,1.3672 q 0.7891,-0.8828 1.4102,-1.2187 0.6211,-0.336 1.3476,-0.336 0.7735,0 1.293,0.4102 0.5195,0.4101 0.6836,1.1445 0.6328,-0.7812 1.332,-1.168 0.6992,-0.3867 1.4727,-0.3867 1.039,0 1.5586,0.4922 0.5195,0.4922 0.5195,1.3828 0,0.3828 -0.1797,1.2656 L -586.2969,209 h -1.414 l 1.1406,-5.4844 q 0.1484,-0.6718 0.1484,-0.9609 0,-0.4063 -0.2578,-0.6406 -0.2578,-0.2344 -0.7265,-0.2344 -0.6329,0 -1.2891,0.3828 -0.6563,0.3828 -1.0195,1.0039 -0.3633,0.6211 -0.6368,1.9102 L -591.1953,209 h -1.4141 l 1.1719,-5.6016 q 0.125,-0.5703 0.125,-0.8125 0,-0.4062 -0.2539,-0.6562 -0.2539,-0.25 -0.6602,-0.25 -0.6015,0 -1.2617,0.3828 -0.6601,0.3828 -1.0742,1.0664 -0.4141,0.6836 -0.6797,1.9492 L -596.0625,209 Z m 13,0 1.7344,-8.2969 h 1.4141 l -0.2891,1.3672 q 0.7891,-0.8828 1.4102,-1.2187 0.6211,-0.336 1.3476,-0.336 0.7735,0 1.293,0.4102 0.5195,0.4101 0.6836,1.1445 0.6328,-0.7812 1.332,-1.168 0.6992,-0.3867 1.4727,-0.3867 1.039,0 1.5586,0.4922 0.5195,0.4922 0.5195,1.3828 0,0.3828 -0.1797,1.2656 L -573.2969,209 h -1.414 l 1.1406,-5.4844 q 0.1484,-0.6718 0.1484,-0.9609 0,-0.4063 -0.2578,-0.6406 -0.2578,-0.2344 -0.7265,-0.2344 -0.6329,0 -1.2891,0.3828 -0.6563,0.3828 -1.0195,1.0039 -0.3633,0.6211 -0.6368,1.9102 L -578.1953,209 h -1.4141 l 1.1719,-5.6016 q 0.125,-0.5703 0.125,-0.8125 0,-0.4062 -0.2539,-0.6562 -0.2539,-0.25 -0.6602,-0.25 -0.6015,0 -1.2617,0.3828 -0.6601,0.3828 -1.0742,1.0664 -0.4141,0.6836 -0.6797,1.9492 L -583.0625,209 Z m 19.1016,-2.8203 1.375,0.1406 q -0.2969,1.0235 -1.3633,1.9453 -1.0664,0.9219 -2.5429,0.9219 -0.9219,0 -1.6915,-0.4258 -0.7695,-0.4258 -1.1718,-1.2383 -0.4024,-0.8125 -0.4024,-1.8515 0,-1.3594 0.6289,-2.6367 0.6289,-1.2774 1.6289,-1.8985 1,-0.6211 2.1641,-0.6211 1.4844,0 2.3711,0.9219 0.8867,0.9219 0.8867,2.5156 0,0.6094 -0.1094,1.25 h -6.1093 q -0.0313,0.2422 -0.0313,0.4375 0,1.1641 0.5352,1.7774 0.5351,0.6132 1.3086,0.6132 0.7265,0 1.4296,-0.4765 0.7032,-0.4766 1.0938,-1.375 z m -4.1094,-2.0547 h 4.6563 q 0.008,-0.2188 0.008,-0.3125 0,-1.0625 -0.5313,-1.6289 -0.5312,-0.5664 -1.3672,-0.5664 -0.9062,0 -1.6523,0.625 -0.7461,0.625 -1.1133,1.8828 z m 7.0156,4.875 1.7344,-8.2969 h 1.25 l -0.3515,1.6953 q 0.6406,-0.9609 1.2539,-1.4218 0.6132,-0.461 1.2539,-0.461 0.4219,0 1.039,0.3047 l -0.5781,1.3125 q -0.3672,-0.2656 -0.8047,-0.2656 -0.7422,0 -1.5234,0.8281 -0.7813,0.8281 -1.2266,2.9766 L -561.125,209 Z m 10.7266,-3.0234 1.4141,0.1484 q -0.5313,1.5547 -1.5117,2.3086 -0.9805,0.7539 -2.2305,0.7539 -1.3516,0 -2.1914,-0.875 -0.8399,-0.875 -0.8399,-2.4453 0,-1.3594 0.5391,-2.6719 0.5391,-1.3125 1.543,-1.9961 1.0039,-0.6836 2.2929,-0.6836 1.336,0 2.1172,0.7539 0.7813,0.7539 0.7813,1.9961 l -1.3907,0.0938 q -0.008,-0.7891 -0.457,-1.2344 -0.4492,-0.4453 -1.1836,-0.4453 -0.8515,0 -1.4765,0.5391 -0.625,0.539 -0.9805,1.6367 -0.3555,1.0976 -0.3555,2.1133 0,1.0624 0.4688,1.5937 0.4687,0.5313 1.1562,0.5313 0.6875,0 1.3164,-0.5235 0.6289,-0.5234 0.9883,-1.5937 z m 4.2813,-6.8282 0.3359,-1.6015 h 1.4062 l -0.3359,1.6015 z m -2.0625,9.8516 1.7343,-8.2969 h 1.4141 L -548.1094,209 Z m 9.6484,-1.0312 q -0.7344,0.6328 -1.4141,0.9257 -0.6797,0.293 -1.4531,0.293 -1.1484,0 -1.8516,-0.6758 -0.7031,-0.6758 -0.7031,-1.7305 0,-0.6953 0.3164,-1.2304 0.3164,-0.5352 0.8399,-0.8594 0.5234,-0.3242 1.2812,-0.4648 0.4766,-0.0938 1.8086,-0.1485 1.332,-0.0547 1.9102,-0.2812 0.164,-0.5781 0.164,-0.961 0,-0.4921 -0.3593,-0.7734 -0.4922,-0.3906 -1.4375,-0.3906 -0.8907,0 -1.4571,0.3945 -0.5664,0.3945 -0.8242,1.1211 l -1.4297,-0.125 q 0.4375,-1.2344 1.3867,-1.8906 0.9493,-0.6563 2.3946,-0.6563 1.539,0 2.4375,0.7344 0.6875,0.5469 0.6875,1.4219 0,0.664 -0.1953,1.539 l -0.461,2.0625 q -0.2187,0.9844 -0.2187,1.6016 0,0.3906 0.1719,1.125 h -1.4297 q -0.1172,-0.4062 -0.1641,-1.0312 z m 0.5234,-3.1719 q -0.2968,0.1172 -0.6367,0.1797 -0.3398,0.0625 -1.1367,0.1328 -1.2344,0.1094 -1.7422,0.2773 -0.5078,0.168 -0.7656,0.5352 -0.2578,0.3672 -0.2578,0.8125 0,0.5937 0.4101,0.9765 0.4102,0.3829 1.168,0.3829 0.7031,0 1.3516,-0.3711 0.6484,-0.3711 1.0234,-1.0352 0.375,-0.6641 0.5859,-1.8906 z m 2.7735,4.2031 2.3906,-11.4531 h 1.4141 L -535.1641,209 Z m 8.289,0 2.3907,-11.4531 h 3.4531 q 1.2422,0 1.8984,0.1797 0.9375,0.2422 1.6016,0.8632 0.6641,0.6211 1,1.5508 0.3359,0.9297 0.3359,2.086 0,1.3828 -0.4179,2.5195 -0.418,1.1367 -1.0938,2 -0.6758,0.8633 -1.4141,1.3516 -0.7382,0.4882 -1.746,0.7226 -0.7657,0.1797 -1.8829,0.1797 z m 1.8047,-1.2969 h 1.8125 q 1.2266,0 2.1797,-0.2265 0.5938,-0.1407 1.0156,-0.4141 0.5547,-0.3516 1.0078,-0.9297 0.5938,-0.7656 0.9493,-1.7461 0.3554,-0.9805 0.3554,-2.2305 0,-1.3906 -0.4843,-2.1367 -0.4844,-0.7461 -1.2344,-0.9883 -0.5547,-0.1796 -1.7266,-0.1796 h -2.0234 z m 16.1094,-1.5234 1.375,0.1406 q -0.2969,1.0235 -1.3633,1.9453 -1.0664,0.9219 -2.5429,0.9219 -0.9219,0 -1.6915,-0.4258 -0.7695,-0.4258 -1.1718,-1.2383 -0.4024,-0.8125 -0.4024,-1.8515 0,-1.3594 0.6289,-2.6367 0.6289,-1.2774 1.6289,-1.8985 1,-0.6211 2.1641,-0.6211 1.4844,0 2.3711,0.9219 0.8867,0.9219 0.8867,2.5156 0,0.6094 -0.1094,1.25 h -6.1093 q -0.0313,0.2422 -0.0313,0.4375 0,1.1641 0.5352,1.7774 0.5351,0.6132 1.3086,0.6132 0.7265,0 1.4296,-0.4765 0.7032,-0.4766 1.0938,-1.375 z m -4.1094,-2.0547 h 4.6563 q 0.008,-0.2188 0.008,-0.3125 0,-1.0625 -0.5313,-1.6289 -0.5312,-0.5664 -1.3672,-0.5664 -0.9062,0 -1.6523,0.625 -0.7461,0.625 -1.1133,1.8828 z m 9.1094,4.875 -1.3594,-8.2969 h 1.375 l 0.711,4.5703 q 0.1172,0.75 0.289,2.4454 0.4063,-0.8829 1.0391,-2.0235 l 2.7734,-4.9922 h 1.4922 l -4.75,8.2969 z m 12,-2.8203 1.375,0.1406 q -0.2969,1.0235 -1.3633,1.9453 -1.0664,0.9219 -2.5429,0.9219 -0.9219,0 -1.6915,-0.4258 -0.7695,-0.4258 -1.1718,-1.2383 -0.4024,-0.8125 -0.4024,-1.8515 0,-1.3594 0.6289,-2.6367 0.6289,-1.2774 1.6289,-1.8985 1,-0.6211 2.1641,-0.6211 1.4844,0 2.3711,0.9219 0.8867,0.9219 0.8867,2.5156 0,0.6094 -0.1094,1.25 h -6.1093 q -0.0313,0.2422 -0.0313,0.4375 0,1.1641 0.5352,1.7774 0.5351,0.6132 1.3086,0.6132 0.7265,0 1.4296,-0.4765 0.7032,-0.4766 1.0938,-1.375 z m -4.1094,-2.0547 h 4.6563 q 0.008,-0.2188 0.008,-0.3125 0,-1.0625 -0.5313,-1.6289 -0.5312,-0.5664 -1.3672,-0.5664 -0.9062,0 -1.6523,0.625 -0.7461,0.625 -1.1133,1.8828 z m 6.9063,4.875 2.3906,-11.4531 h 1.4141 L -489.1641,209 Z m 4.3593,-3.1484 q 0,-2.4297 1.4297,-4.0235 1.1797,-1.3125 3.0938,-1.3125 1.5,0 2.418,0.9375 0.9179,0.9375 0.9179,2.5313 0,1.4297 -0.5781,2.6601 -0.5781,1.2305 -1.6445,1.8867 -1.0664,0.6563 -2.2461,0.6563 -0.9688,0 -1.7617,-0.4141 -0.793,-0.414 -1.211,-1.1718 -0.418,-0.7578 -0.418,-1.75 z m 1.4141,-0.1407 q 0,1.1719 0.5625,1.7774 0.5625,0.6055 1.4297,0.6055 0.4531,0 0.8984,-0.1836 0.4453,-0.1836 0.8282,-0.5586 0.3828,-0.375 0.6523,-0.8555 0.2695,-0.4805 0.4336,-1.0352 0.2422,-0.7734 0.2422,-1.4843 0,-1.125 -0.5664,-1.7461 -0.5664,-0.6211 -1.4258,-0.6211 -0.6641,0 -1.2109,0.3164 -0.5469,0.3164 -0.9883,0.9258 -0.4414,0.6093 -0.6485,1.4179 -0.207,0.8086 -0.207,1.4414 z m 6.6406,6.4688 2.3985,-11.4766 h 1.3047 l -0.2422,1.1563 q 0.7265,-0.7578 1.3008,-1.0508 0.5742,-0.293 1.2148,-0.293 1.1875,0 1.9687,0.8633 0.7813,0.8633 0.7813,2.4727 0,1.2968 -0.4297,2.3632 -0.4297,1.0664 -1.0547,1.7149 -0.625,0.6484 -1.2656,0.9531 -0.6406,0.3047 -1.3125,0.3047 -1.4922,0 -2.3125,-1.5156 l -0.9375,4.5078 z m 2.7969,-6.5703 q 0,0.9297 0.1328,1.289 0.1953,0.5078 0.6406,0.8204 0.4454,0.3124 1.0313,0.3124 1.2187,0 1.9687,-1.371 0.75,-1.3711 0.75,-2.8008 0,-1.0547 -0.5039,-1.6289 -0.5039,-0.5743 -1.2539,-0.5743 -0.539,0 -1,0.2852 -0.4609,0.2852 -0.8554,0.8516 -0.3946,0.5664 -0.6524,1.3867 -0.2578,0.8203 -0.2578,1.4297 z m 6.8906,3.3906 1.7344,-8.2969 h 1.4141 l -0.2891,1.3672 q 0.7891,-0.8828 1.4102,-1.2187 0.6211,-0.336 1.3476,-0.336 0.7735,0 1.293,0.4102 0.5195,0.4101 0.6836,1.1445 0.6328,-0.7812 1.332,-1.168 0.6992,-0.3867 1.4727,-0.3867 1.039,0 1.5586,0.4922 0.5195,0.4922 0.5195,1.3828 0,0.3828 -0.1797,1.2656 L -457.2969,209 h -1.414 l 1.1406,-5.4844 q 0.1484,-0.6718 0.1484,-0.9609 0,-0.4063 -0.2578,-0.6406 -0.2578,-0.2344 -0.7265,-0.2344 -0.6329,0 -1.2891,0.3828 -0.6563,0.3828 -1.0195,1.0039 -0.3633,0.6211 -0.6368,1.9102 L -462.1953,209 h -1.4141 l 1.1719,-5.6016 q 0.125,-0.5703 0.125,-0.8125 0,-0.4062 -0.2539,-0.6562 -0.2539,-0.25 -0.6602,-0.25 -0.6015,0 -1.2617,0.3828 -0.6601,0.3828 -1.0742,1.0664 -0.4141,0.6836 -0.6797,1.9492 L -467.0625,209 Z m 19.1016,-2.8203 1.375,0.1406 q -0.2969,1.0235 -1.3633,1.9453 -1.0664,0.9219 -2.5429,0.9219 -0.9219,0 -1.6915,-0.4258 -0.7695,-0.4258 -1.1718,-1.2383 -0.4024,-0.8125 -0.4024,-1.8515 0,-1.3594 0.6289,-2.6367 0.6289,-1.2774 1.6289,-1.8985 1,-0.6211 2.1641,-0.6211 1.4844,0 2.3711,0.9219 0.8867,0.9219 0.8867,2.5156 0,0.6094 -0.1094,1.25 h -6.1093 q -0.0313,0.2422 -0.0313,0.4375 0,1.1641 0.5352,1.7774 0.5351,0.6132 1.3086,0.6132 0.7265,0 1.4296,-0.4765 0.7032,-0.4766 1.0938,-1.375 z m -4.1094,-2.0547 h 4.6563 q 0.008,-0.2188 0.008,-0.3125 0,-1.0625 -0.5313,-1.6289 -0.5312,-0.5664 -1.3672,-0.5664 -0.9062,0 -1.6523,0.625 -0.7461,0.625 -1.1133,1.8828 z m 7.0156,4.875 1.7344,-8.2969 h 1.2813 l -0.3047,1.4453 q 0.8359,-0.8515 1.5625,-1.2422 0.7265,-0.3906 1.4844,-0.3906 1.0078,0 1.582,0.5469 0.5742,0.5469 0.5742,1.4609 0,0.461 -0.2031,1.4532 L -439.8125,209 h -1.4141 l 1.1016,-5.2578 q 0.1641,-0.7656 0.1641,-1.1328 0,-0.4141 -0.2852,-0.6719 -0.2851,-0.2578 -0.8242,-0.2578 -1.0859,0 -1.9336,0.7812 -0.8477,0.7813 -1.2461,2.6797 L -445.0547,209 Z m 12.3047,-1.1484 -0.2343,1.1562 q -0.5078,0.1328 -0.9844,0.1328 -0.8438,0 -1.3438,-0.414 -0.375,-0.3125 -0.375,-0.8516 0,-0.2734 0.2032,-1.2578 l 1.0078,-4.8203 h -1.1172 l 0.2266,-1.0938 h 1.1171 l 0.4297,-2.039 1.6172,-0.9766 -0.6328,3.0156 h 1.3906 l -0.2344,1.0938 h -1.3828 l -0.9609,4.5859 q -0.1797,0.875 -0.1797,1.0469 0,0.25 0.1445,0.3828 0.1446,0.1328 0.4727,0.1328 0.4688,0 0.8359,-0.0937 z m 6.7032,-8.7032 0.3359,-1.6015 h 1.4062 l -0.3359,1.6015 z m -2.0625,9.8516 1.7343,-8.2969 h 1.4141 L -428.1094,209 Z m 4.1875,-2.8359 1.414,-0.086 q 0,0.6094 0.1875,1.0391 0.1875,0.4297 0.6914,0.7031 0.5039,0.2735 1.1758,0.2735 0.9375,0 1.4063,-0.375 0.4687,-0.375 0.4687,-0.8829 0,-0.3671 -0.2812,-0.6953 -0.2891,-0.3281 -1.4102,-0.8086 -1.1211,-0.4804 -1.4336,-0.6758 -0.5234,-0.3203 -0.789,-0.7539 -0.2657,-0.4335 -0.2657,-0.9961 0,-0.9843 0.7813,-1.6874 0.7812,-0.7032 2.1875,-0.7032 1.5625,0 2.3789,0.7227 0.8164,0.7226 0.8476,1.9023 l -1.3828,0.0938 q -0.0312,-0.75 -0.5312,-1.1875 -0.5,-0.4375 -1.4141,-0.4375 -0.7344,0 -1.1406,0.3359 -0.4063,0.3359 -0.4063,0.7266 0,0.3906 0.3516,0.6875 0.2344,0.2031 1.2109,0.625 1.625,0.7031 2.0469,1.1094 0.6719,0.6484 0.6719,1.5781 0,0.6172 -0.3789,1.2109 -0.3789,0.5938 -1.1563,0.9492 -0.7773,0.3555 -1.832,0.3555 -1.4375,0 -2.4453,-0.7109 -1.0078,-0.711 -0.9531,-2.3125 z m 12,0 1.414,-0.086 q 0,0.6094 0.1875,1.0391 0.1875,0.4297 0.6914,0.7031 0.5039,0.2735 1.1758,0.2735 0.9375,0 1.4063,-0.375 0.4687,-0.375 0.4687,-0.8829 0,-0.3671 -0.2812,-0.6953 -0.2891,-0.3281 -1.4102,-0.8086 -1.1211,-0.4804 -1.4336,-0.6758 -0.5234,-0.3203 -0.789,-0.7539 -0.2657,-0.4335 -0.2657,-0.9961 0,-0.9843 0.7813,-1.6874 0.7812,-0.7032 2.1875,-0.7032 1.5625,0 2.3789,0.7227 0.8164,0.7226 0.8476,1.9023 l -1.3828,0.0938 q -0.0312,-0.75 -0.5312,-1.1875 -0.5,-0.4375 -1.4141,-0.4375 -0.7344,0 -1.1406,0.3359 -0.4063,0.3359 -0.4063,0.7266 0,0.3906 0.3516,0.6875 0.2344,0.2031 1.2109,0.625 1.625,0.7031 2.0469,1.1094 0.6719,0.6484 0.6719,1.5781 0,0.6172 -0.3789,1.2109 -0.3789,0.5938 -1.1563,0.9492 -0.7773,0.3555 -1.832,0.3555 -1.4375,0 -2.4453,-0.7109 -1.0078,-0.711 -0.9531,-2.3125 z m 11.1718,1.6875 -0.2343,1.1562 q -0.5078,0.1328 -0.9844,0.1328 -0.8438,0 -1.3438,-0.414 -0.375,-0.3125 -0.375,-0.8516 0,-0.2734 0.2032,-1.2578 l 1.0078,-4.8203 h -1.1172 l 0.2266,-1.0938 h 1.1171 l 0.4297,-2.039 1.6172,-0.9766 -0.6328,3.0156 h 1.3906 l -0.2344,1.0938 h -1.3828 l -0.9609,4.5859 q -0.1797,0.875 -0.1797,1.0469 0,0.25 0.1445,0.3828 0.1446,0.1328 0.4727,0.1328 0.4688,0 0.8359,-0.0937 z m 0.6953,1.1484 1.7344,-8.2969 h 1.25 l -0.3515,1.6953 q 0.6406,-0.9609 1.2539,-1.4218 0.6132,-0.461 1.2539,-0.461 0.4219,0 1.039,0.3047 l -0.5781,1.3125 q -0.3672,-0.2656 -0.8047,-0.2656 -0.7422,0 -1.5234,0.8281 -0.7813,0.8281 -1.2266,2.9766 L -400.125,209 Z m 7.0079,-9.8516 0.3359,-1.6015 h 1.4062 l -0.3359,1.6015 z m -2.0625,9.8516 1.7343,-8.2969 h 1.4141 L -395.1094,209 Z m 9.7812,-3.0234 1.4141,0.1484 q -0.5313,1.5547 -1.5117,2.3086 -0.9805,0.7539 -2.2305,0.7539 -1.3516,0 -2.1914,-0.875 -0.8399,-0.875 -0.8399,-2.4453 0,-1.3594 0.5391,-2.6719 0.5391,-1.3125 1.543,-1.9961 1.0039,-0.6836 2.2929,-0.6836 1.336,0 2.1172,0.7539 0.7813,0.7539 0.7813,1.9961 l -1.3907,0.0938 q -0.008,-0.7891 -0.457,-1.2344 -0.4492,-0.4453 -1.1836,-0.4453 -0.8515,0 -1.4765,0.5391 -0.625,0.539 -0.9805,1.6367 -0.3555,1.0976 -0.3555,2.1133 0,1.0624 0.4688,1.5937 0.4687,0.5313 1.1562,0.5313 0.6875,0 1.3164,-0.5235 0.6289,-0.5234 0.9883,-1.5937 z m 5.5781,1.875 -0.2343,1.1562 q -0.5078,0.1328 -0.9844,0.1328 -0.8438,0 -1.3438,-0.414 -0.375,-0.3125 -0.375,-0.8516 0,-0.2734 0.2032,-1.2578 l 1.0078,-4.8203 h -1.1172 l 0.2266,-1.0938 h 1.1171 l 0.4297,-2.039 1.6172,-0.9766 -0.6328,3.0156 h 1.3906 l -0.2344,1.0938 h -1.3828 l -0.9609,4.5859 q -0.1797,0.875 -0.1797,1.0469 0,0.25 0.1445,0.3828 0.1446,0.1328 0.4727,0.1328 0.4688,0 0.8359,-0.0937 z m 0.586,1.1484 2.3906,-11.4531 h 1.4141 L -379.1641,209 Z m 3.5781,3.2031 0.0859,-1.3281 q 0.4375,0.125 0.8516,0.125 0.4297,0 0.6953,-0.1953 0.3438,-0.2578 0.75,-0.9688 l 0.4531,-0.8125 -1.3828,-8.3203 h 1.3907 l 0.625,4.1953 q 0.1874,1.2422 0.3203,2.4844 l 3.7109,-6.6797 h 1.4766 l -5.2891,9.3985 q -0.7656,1.375 -1.3594,1.8203 -0.5937,0.4453 -1.3672,0.4453 -0.4921,0 -0.9609,-0.1641 z m 12.6875,-3.2031 2.3984,-11.4531 h 4.7813 q 1.2422,0 1.8633,0.2851 0.6211,0.2852 1.0273,0.9766 0.4063,0.6914 0.4063,1.5508 0,0.7109 -0.2891,1.4453 -0.2891,0.7344 -0.7305,1.2109 -0.4414,0.4766 -0.8945,0.7188 -0.4531,0.2422 -0.9688,0.3594 -1.1015,0.2578 -2.2265,0.2578 h -2.8672 L -362.7812,209 Z m 2.7734,-5.9453 h 2.5235 q 1.4687,0 2.1562,-0.3164 0.6875,-0.3164 1.1016,-0.9649 0.414,-0.6484 0.414,-1.375 0,-0.5625 -0.2187,-0.9179 -0.2187,-0.3555 -0.6172,-0.5235 -0.3984,-0.1679 -1.5312,-0.1679 h -2.9375 z m 8.0703,5.9453 1.7344,-8.2969 h 1.25 l -0.3515,1.6953 q 0.6406,-0.9609 1.2539,-1.4218 0.6132,-0.461 1.2539,-0.461 0.4219,0 1.039,0.3047 l -0.5781,1.3125 q -0.3672,-0.2656 -0.8047,-0.2656 -0.7422,0 -1.5234,0.8281 -0.7813,0.8281 -1.2266,2.9766 L -352.125,209 Z m 5.25,-3.1484 q 0,-2.4297 1.4297,-4.0235 1.1797,-1.3125 3.0938,-1.3125 1.5,0 2.418,0.9375 0.9179,0.9375 0.9179,2.5313 0,1.4297 -0.5781,2.6601 -0.5781,1.2305 -1.6445,1.8867 -1.0664,0.6563 -2.2461,0.6563 -0.9688,0 -1.7617,-0.4141 -0.793,-0.414 -1.211,-1.1718 -0.418,-0.7578 -0.418,-1.75 z m 1.4141,-0.1407 q 0,1.1719 0.5625,1.7774 0.5625,0.6055 1.4297,0.6055 0.4531,0 0.8984,-0.1836 0.4453,-0.1836 0.8282,-0.5586 0.3828,-0.375 0.6523,-0.8555 0.2695,-0.4805 0.4336,-1.0352 0.2422,-0.7734 0.2422,-1.4843 0,-1.125 -0.5664,-1.7461 -0.5664,-0.6211 -1.4258,-0.6211 -0.6641,0 -1.2109,0.3164 -0.5469,0.3164 -0.9883,0.9258 -0.4414,0.6093 -0.6485,1.4179 -0.207,0.8086 -0.207,1.4414 z m 7.3359,3.2891 2.3907,-11.4531 h 1.414 l -0.914,4.3984 q 0.789,-0.7656 1.4687,-1.0976 0.6797,-0.3321 1.3985,-0.3321 1.0312,0 1.6015,0.543 0.5703,0.543 0.5703,1.4336 0,0.4375 -0.25,1.6094 L -332.8125,209 h -1.4141 l 1.0547,-5.0234 q 0.2266,-1.0938 0.2266,-1.375 0,-0.4063 -0.2813,-0.6641 -0.2812,-0.2578 -0.8125,-0.2578 -0.7656,0 -1.4609,0.4023 -0.6953,0.4024 -1.0898,1.1016 -0.3946,0.6992 -0.7227,2.2539 L -338.0547,209 Z m 11.0079,-9.8516 0.3359,-1.6015 h 1.4062 l -0.3359,1.6015 z m -2.0625,9.8516 1.7343,-8.2969 h 1.4141 L -329.1094,209 Z m 4.0546,0 2.3907,-11.4531 h 1.414 l -0.8515,4.0937 q 0.6718,-0.6172 1.2187,-0.8711 0.5469,-0.2539 1.1407,-0.2539 1.164,0 1.9414,0.8672 0.7773,0.8672 0.7773,2.5234 0,1.1016 -0.3125,2.0157 -0.3125,0.914 -0.7734,1.5351 -0.461,0.6211 -0.9532,0.9922 -0.4922,0.3711 -1.0078,0.5547 -0.5156,0.1836 -0.9922,0.1836 -0.8203,0 -1.4453,-0.4336 -0.625,-0.4336 -0.9765,-1.3242 L -325.2266,209 Z m 2.0938,-3.4062 -0.008,0.2656 q 0,1.0625 0.5078,1.6172 0.5078,0.5546 1.2656,0.5546 0.7422,0 1.3633,-0.5195 0.6211,-0.5195 1.0195,-1.6211 0.3985,-1.1015 0.3985,-2.0312 0,-1.0469 -0.5039,-1.625 -0.5039,-0.5782 -1.2461,-0.5782 -0.7657,0 -1.4063,0.5899 -0.6406,0.5898 -1.0703,1.8164 -0.3203,0.9141 -0.3203,1.5313 z m 8.9141,-6.4454 0.3359,-1.6015 h 1.4062 l -0.3359,1.6015 z m -2.0625,9.8516 1.7343,-8.2969 h 1.4141 L -316.1094,209 Z m 7.3593,-1.1484 -0.2343,1.1562 q -0.5078,0.1328 -0.9844,0.1328 -0.8438,0 -1.3438,-0.414 -0.375,-0.3125 -0.375,-0.8516 0,-0.2734 0.2032,-1.2578 l 1.0078,-4.8203 h -1.1172 l 0.2266,-1.0938 h 1.1171 l 0.4297,-2.039 1.6172,-0.9766 -0.6328,3.0156 h 1.3906 l -0.2344,1.0938 h -1.3828 l -0.9609,4.5859 q -0.1797,0.875 -0.1797,1.0469 0,0.25 0.1445,0.3828 0.1446,0.1328 0.4727,0.1328 0.4688,0 0.8359,-0.0937 z m 6.7891,-1.6719 1.375,0.1406 q -0.2969,1.0235 -1.3633,1.9453 -1.0664,0.9219 -2.5429,0.9219 -0.9219,0 -1.6915,-0.4258 -0.7695,-0.4258 -1.1718,-1.2383 -0.4024,-0.8125 -0.4024,-1.8515 0,-1.3594 0.6289,-2.6367 0.6289,-1.2774 1.6289,-1.8985 1,-0.6211 2.1641,-0.6211 1.4844,0 2.3711,0.9219 0.8867,0.9219 0.8867,2.5156 0,0.6094 -0.1094,1.25 h -6.1093 q -0.0313,0.2422 -0.0313,0.4375 0,1.1641 0.5352,1.7774 0.5351,0.6132 1.3086,0.6132 0.7265,0 1.4296,-0.4765 0.7032,-0.4766 1.0938,-1.375 z m -4.1094,-2.0547 h 4.6563 q 0.008,-0.2188 0.008,-0.3125 0,-1.0625 -0.5313,-1.6289 -0.5312,-0.5664 -1.3672,-0.5664 -0.9062,0 -1.6523,0.625 -0.7461,0.625 -1.1133,1.8828 z m 12.6094,3.6719 q -1.2109,1.3906 -2.5312,1.3906 -1.1797,0 -1.9649,-0.8711 -0.7851,-0.8711 -0.7851,-2.5273 0,-1.5157 0.621,-2.7696 0.6211,-1.2539 1.5547,-1.8789 0.9336,-0.625 1.8711,-0.625 1.5469,0 2.336,1.4922 l 0.9375,-4.4609 h 1.4062 L -293.8203,209 h -1.3047 z m -3.875,-2.2735 q 0,0.8672 0.1719,1.3672 0.1719,0.5 0.5859,0.8321 0.4141,0.332 0.9922,0.332 0.9609,0 1.7422,-1 1.0469,-1.3281 1.0469,-3.2813 0,-0.9843 -0.5157,-1.539 -0.5156,-0.5547 -1.2968,-0.5547 -0.5078,0 -0.9258,0.2265 -0.418,0.2266 -0.8281,0.7696 -0.4102,0.543 -0.6915,1.3789 -0.2812,0.8359 -0.2812,1.4687 z"
     clip-path="url(#clipPath2)"
     id="path4701"
     inkscape:connector-curvature="0"
     style="font-style:italic;font-size:medium;fill:#dddddd;stroke:none;text-rendering:geometricPrecision"
     transform="rotate(75.0985,157.24709,30.446472)" />
  <rect
     x="122"
     y="227"
     clip-path="url(#clipPath1)"
     width="80"
     height="24"
     id="rect4733"
     style="font-size:medium;fill:#b2b2b2;stroke:none;stroke-linecap:butt;stroke-linejoin:round;text-rendering:geometricPrecision"
     transform="translate(-118.5,-167.5)" />
  <rect
     x="119"
     y="224"
     clip-path="url(#clipPath1)"
     width="80"
     height="24"
     id="rect4735"
     style="font-size:medium;fill:url(#linearGradient1);stroke:none;stroke-linecap:butt;stroke-linejoin:round;text-rendering:geometricPrecision"
     transform="translate(-118.5,-167.5)" />
  <rect
     x="119"
     y="224"
     clip-path="url(#clipPath1)"
     width="80"
     height="24"
     id="rect4737"
     style="font-size:medium;fill:none;stroke:#99795c;stroke-linecap:butt;stroke-linejoin:round;text-rendering:geometricPrecision"
     transform="translate(-118.5,-167.5)" />
  <path
     d="m 137.8384,234.105 1.5415,0.4888 q -0.3545,1.289 -1.179,1.9147 -0.8244,0.6258 -2.092,0.6258 -1.5684,0 -2.5781,-1.0716 -1.0098,-1.0715 -1.0098,-2.9299 0,-1.9658 1.0151,-3.0535 1.0152,-1.0876 2.6695,-1.0876 1.4448,0 2.3471,0.854 0.5371,0.5049 0.8057,1.4502 l -1.5737,0.376 q -0.1397,-0.6123 -0.5828,-0.9668 -0.4431,-0.3545 -1.0769,-0.3545 -0.8755,0 -1.4207,0.6284 -0.5451,0.6284 -0.5451,2.0356 0,1.4932 0.5371,2.127 0.5371,0.6338 1.3965,0.6338 0.6338,0 1.0903,-0.4028 0.4565,-0.4029 0.6553,-1.2676 z m 2.602,-0.0376 q 0,-0.752 0.3706,-1.4556 0.3706,-0.7036 1.0501,-1.0742 0.6794,-0.3706 1.5173,-0.3706 1.2945,0 2.1216,0.8406 0.8271,0.8405 0.8271,2.1242 0,1.2945 -0.8352,2.1458 -0.8352,0.8513 -2.1027,0.8513 -0.7842,0 -1.4959,-0.3545 -0.7117,-0.3545 -1.0823,-1.0393 -0.3706,-0.6848 -0.3706,-1.6677 z m 1.5469,0.0805 q 0,0.8487 0.4028,1.2999 0.4029,0.4511 0.9937,0.4511 0.5908,0 0.991,-0.4511 0.4001,-0.4512 0.4001,-1.3106 0,-0.8379 -0.4001,-1.2891 -0.4002,-0.4511 -0.991,-0.4511 -0.5908,0 -0.9937,0.4511 -0.4028,0.4512 -0.4028,1.2998 z M 152.978,237 h -1.5092 v -2.9111 q 0,-0.9239 -0.0967,-1.1951 -0.0967,-0.2712 -0.3142,-0.4216 -0.2176,-0.1504 -0.5237,-0.1504 -0.3921,0 -0.7036,0.2148 -0.3116,0.2149 -0.427,0.5694 -0.1155,0.3544 -0.1155,1.3105 V 237 h -1.5093 v -5.7041 h 1.4019 v 0.8379 q 0.7465,-0.9668 1.8798,-0.9668 0.4996,0 0.9131,0.1799 0.4136,0.18 0.6258,0.4593 0.2121,0.2792 0.2954,0.6337 0.0832,0.3545 0.0832,1.0152 z m 4.4273,-5.7041 v 1.2031 h -1.0313 v 2.2989 q 0,0.6982 0.0296,0.8137 0.0295,0.1155 0.1342,0.1906 0.1048,0.0752 0.2552,0.0752 0.2094,0 0.6069,-0.145 l 0.1289,1.1709 q -0.5264,0.2256 -1.1924,0.2256 -0.4082,0 -0.7358,-0.137 -0.3277,-0.1369 -0.4807,-0.3544 -0.1531,-0.2176 -0.2122,-0.5882 -0.0483,-0.2632 -0.0483,-1.0635 v -2.4868 h -0.6929 v -1.2031 h 0.6929 v -1.1333 l 1.5146,-0.8809 v 2.0142 z M 160.2344,237 h -1.5093 v -5.7041 h 1.4019 v 0.811 q 0.3598,-0.5747 0.6472,-0.7573 0.2873,-0.1826 0.6526,-0.1826 0.5156,0 0.9936,0.2847 l -0.4673,1.3159 q -0.3813,-0.2471 -0.709,-0.2471 -0.3169,0 -0.5371,0.1746 -0.2202,0.1745 -0.3464,0.6311 -0.1262,0.4565 -0.1262,1.9121 z m 2.206,-2.9326 q 0,-0.752 0.3706,-1.4556 0.3706,-0.7036 1.0501,-1.0742 0.6794,-0.3706 1.5173,-0.3706 1.2945,0 2.1216,0.8406 0.8271,0.8405 0.8271,2.1242 0,1.2945 -0.8352,2.1458 -0.8352,0.8513 -2.1027,0.8513 -0.7842,0 -1.4959,-0.3545 -0.7117,-0.3545 -1.0823,-1.0393 -0.3706,-0.6848 -0.3706,-1.6677 z m 1.5469,0.0805 q 0,0.8487 0.4028,1.2999 0.4029,0.4511 0.9937,0.4511 0.5908,0 0.991,-0.4511 0.4001,-0.4512 0.4001,-1.3106 0,-0.8379 -0.4001,-1.2891 -0.4002,-0.4511 -0.991,-0.4511 -0.5908,0 -0.9937,0.4511 -0.4028,0.4512 -0.4028,1.2998 z M 169.7896,237 v -7.874 h 1.5092 V 237 Z m 3,0 v -7.874 h 1.5092 V 237 Z m 6.3032,-1.8154 1.5039,0.2524 q -0.2901,0.8272 -0.9158,1.2595 -0.6257,0.4324 -1.5657,0.4324 -1.4878,0 -2.2021,-0.9722 -0.564,-0.7788 -0.564,-1.9658 0,-1.418 0.7412,-2.2209 0.7412,-0.803 1.8745,-0.803 1.273,0 2.0088,0.8406 0.7359,0.8405 0.7036,2.5754 h -3.7812 q 0.0161,0.6714 0.3652,1.0447 0.3492,0.3733 0.8701,0.3733 0.3545,0 0.5962,-0.1934 0.2417,-0.1933 0.3653,-0.623 z m 0.0859,-1.5254 q -0.0161,-0.6553 -0.3384,-0.9964 -0.3222,-0.341 -0.7841,-0.341 -0.4942,0 -0.8165,0.3598 -0.3222,0.3599 -0.3168,0.9776 z M 183.2344,237 h -1.5093 v -5.7041 h 1.4019 v 0.811 q 0.3598,-0.5747 0.6472,-0.7573 0.2873,-0.1826 0.6526,-0.1826 0.5156,0 0.9936,0.2847 l -0.4673,1.3159 q -0.3813,-0.2471 -0.709,-0.2471 -0.3169,0 -0.5371,0.1746 -0.2202,0.1745 -0.3464,0.6311 -0.1262,0.4565 -0.1262,1.9121 z"
     clip-path="url(#clipPath1)"
     id="path4741"
     inkscape:connector-curvature="0"
     style="font-weight:bold;font-size:medium;stroke:none;stroke-linecap:butt;stroke-linejoin:round;text-rendering:optimizeLegibility"
     transform="translate(-118.5,-167.5)" />
  <rect
     x="122"
     y="171"
     clip-path="url(#clipPath1)"
     width="80"
     height="24"
     id="rect4743"
     style="font-weight:bold;font-size:medium;fill:#b2b2b2;stroke:none;stroke-linecap:butt;stroke-linejoin:round;text-rendering:geometricPrecision"
     transform="translate(-118.5,-167.5)" />
  <rect
     x="119"
     y="168"
     clip-path="url(#clipPath1)"
     width="80"
     height="24"
     id="rect4745"
     style="font-weight:bold;font-size:medium;fill:url(#linearGradient2);stroke:none;stroke-linecap:butt;stroke-linejoin:round;text-rendering:geometricPrecision"
     transform="translate(-118.5,-167.5)" />
  <rect
     x="119"
     y="168"
     clip-path="url(#clipPath1)"
     width="80"
     height="24"
     id="rect4747"
     style="font-weight:bold;font-size:medium;fill:none;stroke:#99795c;stroke-linecap:butt;stroke-linejoin:round;text-rendering:geometricPrecision"
     transform="translate(-118.5,-167.5)" />
  <path
     d="m 123.3975,178.438 1.5468,-0.1504 q 0.1397,0.7788 0.5667,1.144 0.427,0.3653 1.1521,0.3653 0.7681,0 1.1575,-0.325 0.3894,-0.3249 0.3894,-0.76 0,-0.2793 -0.1639,-0.4753 -0.1638,-0.1961 -0.572,-0.3411 -0.2793,-0.0967 -1.2729,-0.3437 -1.2783,-0.3169 -1.794,-0.7789 -0.7251,-0.6499 -0.7251,-1.5844 0,-0.6016 0.3411,-1.1253 0.3411,-0.5236 0.9829,-0.7976 0.6418,-0.2739 1.5496,-0.2739 1.4824,0 2.2317,0.6499 0.7492,0.6499 0.7868,1.7349 l -1.5898,0.0698 q -0.1021,-0.6069 -0.4378,-0.8728 -0.3357,-0.2659 -1.007,-0.2659 -0.6929,0 -1.085,0.2847 -0.2525,0.1826 -0.2525,0.4888 0,0.2793 0.2364,0.478 0.3008,0.2524 1.4609,0.5263 1.1602,0.274 1.7161,0.5667 0.5559,0.2927 0.8701,0.8003 0.3142,0.5076 0.3142,1.2541 0,0.6768 -0.376,1.2676 -0.3759,0.5908 -1.0634,0.8782 -0.6875,0.2873 -1.7134,0.2873 -1.4932,0 -2.2935,-0.6901 -0.8003,-0.6902 -0.956,-2.0115 z m 10.0078,-3.1421 v 1.2031 h -1.0313 v 2.2989 q 0,0.6982 0.0296,0.8137 0.0295,0.1155 0.1342,0.1906 0.1048,0.0752 0.2552,0.0752 0.2094,0 0.6069,-0.145 l 0.1289,1.1709 q -0.5264,0.2256 -1.1924,0.2256 -0.4082,0 -0.7358,-0.137 -0.3277,-0.1369 -0.4807,-0.3544 -0.1531,-0.2176 -0.2122,-0.5882 -0.0483,-0.2632 -0.0483,-1.0635 v -2.4868 h -0.6929 v -1.2031 h 0.6929 v -1.1333 l 1.5146,-0.8809 v 2.0142 z m 2.5122,1.7402 -1.3696,-0.247 q 0.2309,-0.8272 0.7949,-1.2246 0.5639,-0.3975 1.6758,-0.3975 1.0097,0 1.5039,0.239 0.4941,0.239 0.6955,0.6069 0.2014,0.368 0.2014,1.3509 l -0.0161,1.7617 q 0,0.7519 0.0725,1.1091 0.0725,0.3572 0.2713,0.7654 h -1.4932 q -0.0591,-0.1504 -0.145,-0.4458 -0.0376,-0.1343 -0.0537,-0.1772 -0.3867,0.3759 -0.8272,0.5639 -0.4404,0.188 -0.9399,0.188 -0.8809,0 -1.3884,-0.478 -0.5076,-0.478 -0.5076,-1.2085 0,-0.4834 0.2309,-0.8621 0.231,-0.3786 0.6473,-0.5801 0.4162,-0.2014 1.2004,-0.3518 1.0581,-0.1987 1.4663,-0.3706 v -0.1504 q 0,-0.435 -0.2148,-0.6203 -0.2149,-0.1853 -0.8111,-0.1853 -0.4028,0 -0.6284,0.1584 -0.2256,0.1585 -0.3652,0.5559 z m 2.0195,1.2246 q -0.29,0.0967 -0.9184,0.231 -0.6285,0.1343 -0.8218,0.2632 -0.2954,0.2095 -0.2954,0.5317 0,0.3169 0.2363,0.5479 0.2363,0.2309 0.6016,0.2309 0.4082,0 0.7788,-0.2685 0.2739,-0.2041 0.3598,-0.4995 0.0591,-0.1934 0.0591,-0.7359 z m 5.4683,-2.9648 v 1.2031 h -1.0313 v 2.2989 q 0,0.6982 0.0296,0.8137 0.0295,0.1155 0.1342,0.1906 0.1048,0.0752 0.2552,0.0752 0.2094,0 0.6069,-0.145 l 0.1289,1.1709 q -0.5264,0.2256 -1.1924,0.2256 -0.4082,0 -0.7358,-0.137 -0.3277,-0.1369 -0.4807,-0.3544 -0.1531,-0.2176 -0.2122,-0.5882 -0.0483,-0.2632 -0.0483,-1.0635 v -2.4868 h -0.6929 v -1.2031 h 0.6929 v -1.1333 l 1.5146,-0.8809 v 2.0142 z m 4.6875,3.8887 1.5039,0.2524 q -0.2901,0.8272 -0.9158,1.2595 -0.6257,0.4324 -1.5657,0.4324 -1.4878,0 -2.2021,-0.9722 -0.564,-0.7788 -0.564,-1.9658 0,-1.418 0.7412,-2.2209 0.7412,-0.803 1.8745,-0.803 1.273,0 2.0088,0.8406 0.7359,0.8405 0.7036,2.5754 h -3.7812 q 0.0161,0.6714 0.3652,1.0447 0.3492,0.3733 0.8701,0.3733 0.3545,0 0.5962,-0.1934 0.2417,-0.1933 0.3653,-0.623 z m 0.0859,-1.5254 q -0.0161,-0.6553 -0.3384,-0.9964 -0.3222,-0.341 -0.7841,-0.341 -0.4942,0 -0.8165,0.3598 -0.3222,0.3599 -0.3168,0.9776 z M 150.7788,181 v -7.874 h 2.3794 l 1.4287,5.3711 1.4126,-5.3711 h 2.3848 V 181 h -1.4771 v -6.1982 L 155.3442,181 h -1.5307 l -1.5576,-6.1982 V 181 Z m 10.1387,-3.9639 -1.3696,-0.247 q 0.2309,-0.8272 0.7949,-1.2246 0.5639,-0.3975 1.6758,-0.3975 1.0097,0 1.5039,0.239 0.4941,0.239 0.6955,0.6069 0.2014,0.368 0.2014,1.3509 l -0.0161,1.7617 q 0,0.7519 0.0725,1.1091 0.0725,0.3572 0.2713,0.7654 h -1.4932 q -0.0591,-0.1504 -0.145,-0.4458 -0.0376,-0.1343 -0.0537,-0.1772 -0.3867,0.3759 -0.8272,0.5639 -0.4404,0.188 -0.9399,0.188 -0.8809,0 -1.3884,-0.478 -0.5076,-0.478 -0.5076,-1.2085 0,-0.4834 0.2309,-0.8621 0.231,-0.3786 0.6473,-0.5801 0.4162,-0.2014 1.2004,-0.3518 1.0581,-0.1987 1.4663,-0.3706 v -0.1504 q 0,-0.435 -0.2148,-0.6203 -0.2149,-0.1853 -0.8111,-0.1853 -0.4028,0 -0.6284,0.1584 -0.2256,0.1585 -0.3652,0.5559 z m 2.0195,1.2246 q -0.29,0.0967 -0.9184,0.231 -0.6285,0.1343 -0.8218,0.2632 -0.2954,0.2095 -0.2954,0.5317 0,0.3169 0.2363,0.5479 0.2363,0.2309 0.6016,0.2309 0.4082,0 0.7788,-0.2685 0.2739,-0.2041 0.3598,-0.4995 0.0591,-0.1934 0.0591,-0.7359 z m 7.8262,-1.2783 -1.4878,0.2686 q -0.0752,-0.4458 -0.3411,-0.6714 -0.2658,-0.2256 -0.6902,-0.2256 -0.5639,0 -0.8996,0.3894 -0.3357,0.3894 -0.3357,1.3025 0,1.0151 0.3411,1.4341 0.341,0.4189 0.9157,0.4189 0.4297,0 0.7036,-0.2444 0.274,-0.2443 0.3868,-0.8405 l 1.4824,0.2524 q -0.231,1.0205 -0.8863,1.5415 -0.6552,0.521 -1.7563,0.521 -1.2515,0 -1.9954,-0.7895 -0.7439,-0.7896 -0.7439,-2.1861 0,-1.4126 0.7466,-2.1994 0.7466,-0.7869 2.0196,-0.7869 1.0419,0 1.6569,0.4485 0.615,0.4485 0.8836,1.3669 z m 2.5303,-3.8564 v 2.895 q 0.7304,-0.854 1.7456,-0.854 0.521,0 0.9399,0.1934 0.4189,0.1933 0.6311,0.4941 0.2122,0.3008 0.29,0.666 0.0779,0.3652 0.0779,1.1333 V 181 h -1.5092 v -3.0132 q 0,-0.897 -0.086,-1.1387 -0.0859,-0.2417 -0.3035,-0.384 -0.2175,-0.1423 -0.5451,-0.1423 -0.376,0 -0.6714,0.1826 -0.2954,0.1826 -0.4324,0.5505 -0.1369,0.368 -0.1369,1.0877 V 181 h -1.5093 v -7.874 z m 5.4961,1.3965 v -1.3965 h 1.5092 v 1.3965 z m 0,6.4775 v -5.7041 h 1.5092 V 181 Z m 8.1884,0 h -1.5092 v -2.9111 q 0,-0.9239 -0.0967,-1.1951 -0.0967,-0.2712 -0.3142,-0.4216 -0.2176,-0.1504 -0.5237,-0.1504 -0.3921,0 -0.7036,0.2148 -0.3116,0.2149 -0.427,0.5694 -0.1155,0.3544 -0.1155,1.3105 V 181 h -1.5093 v -5.7041 h 1.4019 v 0.8379 q 0.7465,-0.9668 1.8798,-0.9668 0.4996,0 0.9131,0.1799 0.4136,0.18 0.6258,0.4593 0.2121,0.2792 0.2954,0.6337 0.0832,0.3545 0.0832,1.0152 z m 5.1148,-1.8154 1.5039,0.2524 q -0.2901,0.8272 -0.9158,1.2595 -0.6257,0.4324 -1.5657,0.4324 -1.4878,0 -2.2021,-0.9722 -0.564,-0.7788 -0.564,-1.9658 0,-1.418 0.7412,-2.2209 0.7412,-0.803 1.8745,-0.803 1.273,0 2.0088,0.8406 0.7359,0.8405 0.7036,2.5754 h -3.7812 q 0.0161,0.6714 0.3652,1.0447 0.3492,0.3733 0.8701,0.3733 0.3545,0 0.5962,-0.1934 0.2417,-0.1933 0.3653,-0.623 z m 0.0859,-1.5254 q -0.0161,-0.6553 -0.3384,-0.9964 -0.3222,-0.341 -0.7841,-0.341 -0.4942,0 -0.8165,0.3598 -0.3222,0.3599 -0.3168,0.9776 z"
     clip-path="url(#clipPath1)"
     id="path4749"
     inkscape:connector-curvature="0"
     style="font-weight:bold;font-size:medium;stroke:none;stroke-linecap:butt;stroke-linejoin:round;text-rendering:optimizeLegibility"
     transform="translate(-118.5,-167.5)" />
  <rect
     x="297"
     y="227"
     clip-path="url(#clipPath1)"
     width="80"
     height="24"
     id="rect4751"
     style="font-weight:bold;font-size:medium;fill:#b2b2b2;stroke:none;stroke-linecap:butt;stroke-linejoin:round;text-rendering:geometricPrecision"
     transform="translate(-118.5,-167.5)" />
  <rect
     x="294"
     y="224"
     clip-path="url(#clipPath1)"
     width="80"
     height="24"
     id="rect4753"
     style="font-weight:bold;font-size:medium;fill:url(#linearGradient3);stroke:none;stroke-linecap:butt;stroke-linejoin:round;text-rendering:geometricPrecision"
     transform="translate(-118.5,-167.5)" />
  <rect
     x="294"
     y="224"
     clip-path="url(#clipPath1)"
     width="80"
     height="24"
     id="rect4755"
     style="font-weight:bold;font-size:medium;fill:none;stroke:#99795c;stroke-linecap:butt;stroke-linejoin:round;text-rendering:geometricPrecision"
     transform="translate(-118.5,-167.5)" />
  <path
     d="m 316.7949,229.126 h 2.9058 q 0.9829,0 1.4985,0.1504 0.6929,0.2041 1.187,0.7251 0.4942,0.521 0.752,1.2756 0.2578,0.7546 0.2578,1.8611 0,0.9722 -0.2417,1.6758 -0.2954,0.8593 -0.8433,1.3911 -0.4135,0.4028 -1.1172,0.6284 Q 320.6675,237 319.7866,237 h -2.9917 z m 1.5899,1.332 v 5.2153 h 1.187 q 0.666,0 0.9614,-0.0752 0.3867,-0.0966 0.6418,-0.3276 0.2552,-0.2309 0.4163,-0.76 0.1611,-0.5291 0.1611,-1.4421 0,-0.9131 -0.1611,-1.4019 -0.1611,-0.4888 -0.4512,-0.7627 -0.29,-0.2739 -0.7358,-0.3706 -0.333,-0.0752 -1.3052,-0.0752 z m 9.708,4.7266 1.5039,0.2524 q -0.2901,0.8272 -0.9158,1.2595 -0.6257,0.4324 -1.5657,0.4324 -1.4878,0 -2.2021,-0.9722 -0.564,-0.7788 -0.564,-1.9658 0,-1.418 0.7412,-2.2209 0.7412,-0.803 1.8745,-0.803 1.273,0 2.0088,0.8406 0.7359,0.8405 0.7036,2.5754 h -3.7812 q 0.0161,0.6714 0.3652,1.0447 0.3492,0.3733 0.8701,0.3733 0.3545,0 0.5962,-0.1934 0.2417,-0.1933 0.3653,-0.623 z m 0.0859,-1.5254 q -0.0161,-0.6553 -0.3384,-0.9964 -0.3222,-0.341 -0.7841,-0.341 -0.4942,0 -0.8165,0.3598 -0.3222,0.3599 -0.3168,0.9776 z m 4.1792,3.3408 -2.2988,-5.7041 h 1.5845 l 1.0742,2.9111 0.3115,0.9722 q 0.1235,-0.3706 0.1558,-0.4888 0.0752,-0.2417 0.1611,-0.4834 l 1.085,-2.9111 h 1.5522 L 333.7168,237 Z m 4.4317,-6.4775 v -1.3965 h 1.5092 v 1.3965 z m 0,6.4775 v -5.7041 h 1.5092 V 237 Z m 7.9736,-4.0176 -1.4878,0.2686 q -0.0752,-0.4458 -0.3411,-0.6714 -0.2658,-0.2256 -0.6902,-0.2256 -0.5639,0 -0.8996,0.3894 -0.3357,0.3894 -0.3357,1.3025 0,1.0151 0.3411,1.4341 0.341,0.4189 0.9157,0.4189 0.4297,0 0.7036,-0.2444 0.274,-0.2443 0.3868,-0.8405 l 1.4824,0.2524 q -0.231,1.0205 -0.8863,1.5415 -0.6552,0.521 -1.7563,0.521 -1.2515,0 -1.9954,-0.7895 -0.7439,-0.7896 -0.7439,-2.1861 0,-1.4126 0.7466,-2.1994 0.7466,-0.7869 2.0196,-0.7869 1.0419,0 1.6569,0.4485 0.615,0.4485 0.8836,1.3669 z m 4.3296,2.2022 1.5039,0.2524 q -0.2901,0.8272 -0.9158,1.2595 -0.6257,0.4324 -1.5657,0.4324 -1.4878,0 -2.2021,-0.9722 -0.564,-0.7788 -0.564,-1.9658 0,-1.418 0.7412,-2.2209 0.7412,-0.803 1.8745,-0.803 1.273,0 2.0088,0.8406 0.7359,0.8405 0.7036,2.5754 h -3.7812 q 0.0161,0.6714 0.3652,1.0447 0.3492,0.3733 0.8701,0.3733 0.3545,0 0.5962,-0.1934 0.2417,-0.1933 0.3653,-0.623 z m 0.0859,-1.5254 q -0.0161,-0.6553 -0.3384,-0.9964 -0.3222,-0.341 -0.7841,-0.341 -0.4942,0 -0.8165,0.3598 -0.3222,0.3599 -0.3168,0.9776 z"
     clip-path="url(#clipPath1)"
     id="path4757"
     inkscape:connector-curvature="0"
     style="font-weight:bold;font-size:medium;stroke:none;stroke-linecap:butt;stroke-linejoin:round;text-rendering:optimizeLegibility"
     transform="translate(-118.5,-167.5)" />
  <path
     d="m 312,248 v 22 H 158 v -22"
     clip-path="url(#clipPath1)"
     id="path4759"
     inkscape:connector-curvature="0"
     style="font-weight:bold;font-size:medium;fill:none;stroke:#424242;stroke-linecap:butt;stroke-linejoin:round;text-rendering:geometricPrecision"
     transform="translate(-118.5,-167.5)" />
  <rect
     x="171"
     y="290"
     clip-path="url(#clipPath1)"
     width="136"
     height="24"
     id="rect4761"
     style="font-weight:bold;font-size:medium;fill:#b2b2b2;stroke:none;stroke-linecap:butt;stroke-linejoin:round;text-rendering:geometricPrecision"
     transform="translate(-118.5,-167.5)" />
  <rect
     x="168"
     y="287"
     clip-path="url(#clipPath1)"
     width="136"
     height="24"
     id="rect4763"
     style="font-weight:bold;font-size:medium;fill:url(#linearGradient4);stroke:none;stroke-linecap:butt;stroke-linejoin:round;text-rendering:geometricPrecision"
     transform="translate(-118.5,-167.5)" />
  <rect
     x="168"
     y="287"
     clip-path="url(#clipPath1)"
     width="136"
     height="24"
     id="rect4765"
     style="font-weight:bold;font-size:medium;fill:none;stroke:#99795c;stroke-linecap:butt;stroke-linejoin:round;text-rendering:geometricPrecision"
     transform="translate(-118.5,-167.5)" />
  <path
     d="m 191.8384,297.105 1.5415,0.4888 q -0.3545,1.289 -1.179,1.9147 -0.8244,0.6258 -2.092,0.6258 -1.5684,0 -2.5781,-1.0716 -1.0098,-1.0715 -1.0098,-2.9299 0,-1.9658 1.0151,-3.0535 1.0152,-1.0876 2.6695,-1.0876 1.4448,0 2.3471,0.854 0.5371,0.5049 0.8057,1.4502 l -1.5737,0.376 q -0.1397,-0.6123 -0.5828,-0.9668 -0.4431,-0.3545 -1.0769,-0.3545 -0.8755,0 -1.4207,0.6284 -0.5451,0.6284 -0.5451,2.0356 0,1.4932 0.5371,2.127 0.5371,0.6338 1.3965,0.6338 0.6338,0 1.0903,-0.4028 0.4565,-0.4029 0.6553,-1.2676 z m 2.602,-0.0376 q 0,-0.752 0.3706,-1.4556 0.3706,-0.7036 1.0501,-1.0742 0.6794,-0.3706 1.5173,-0.3706 1.2945,0 2.1216,0.8406 0.8271,0.8405 0.8271,2.1242 0,1.2945 -0.8352,2.1458 -0.8352,0.8513 -2.1027,0.8513 -0.7842,0 -1.4959,-0.3545 -0.7117,-0.3545 -1.0823,-1.0393 -0.3706,-0.6848 -0.3706,-1.6677 z m 1.5469,0.0805 q 0,0.8487 0.4028,1.2999 0.4029,0.4511 0.9937,0.4511 0.5908,0 0.991,-0.4511 0.4001,-0.4512 0.4001,-1.3106 0,-0.8379 -0.4001,-1.2891 -0.4002,-0.4511 -0.991,-0.4511 -0.5908,0 -0.9937,0.4511 -0.4028,0.4512 -0.4028,1.2998 z m 5.6895,-2.852 h 1.3911 v 0.7788 q 0.7466,-0.9077 1.7778,-0.9077 0.5479,0 0.9507,0.2256 0.4028,0.2256 0.6606,0.6821 0.376,-0.4565 0.8111,-0.6821 0.435,-0.2256 0.9292,-0.2256 0.6284,0 1.0634,0.2551 0.4351,0.2551 0.6499,0.7493 0.1558,0.3652 0.1558,1.1816 V 300 h -1.5093 v -3.2603 q 0,-0.8486 -0.1557,-1.0957 -0.2095,-0.3222 -0.6446,-0.3222 -0.3169,0 -0.5962,0.1933 -0.2793,0.1934 -0.4028,0.5667 -0.1235,0.3733 -0.1235,1.1789 V 300 h -1.5093 v -3.126 q 0,-0.8325 -0.0806,-1.0742 -0.0805,-0.2417 -0.2497,-0.3599 -0.1692,-0.1181 -0.4593,-0.1181 -0.3491,0 -0.6284,0.188 -0.2793,0.188 -0.4001,0.5424 -0.1209,0.3545 -0.1209,1.1763 V 300 h -1.5092 z m 10,0 h 1.3911 v 0.7788 q 0.7466,-0.9077 1.7778,-0.9077 0.5479,0 0.9507,0.2256 0.4028,0.2256 0.6606,0.6821 0.376,-0.4565 0.8111,-0.6821 0.435,-0.2256 0.9292,-0.2256 0.6284,0 1.0634,0.2551 0.4351,0.2551 0.6499,0.7493 0.1558,0.3652 0.1558,1.1816 V 300 h -1.5093 v -3.2603 q 0,-0.8486 -0.1557,-1.0957 -0.2095,-0.3222 -0.6446,-0.3222 -0.3169,0 -0.5962,0.1933 -0.2793,0.1934 -0.4028,0.5667 -0.1235,0.3733 -0.1235,1.1789 V 300 h -1.5093 v -3.126 q 0,-0.8325 -0.0806,-1.0742 -0.0805,-0.2417 -0.2497,-0.3599 -0.1692,-0.1181 -0.4593,-0.1181 -0.3491,0 -0.6284,0.188 -0.2793,0.188 -0.4001,0.5424 -0.1209,0.3545 -0.1209,1.1763 V 300 h -1.5092 z m 11.2407,1.7402 -1.3696,-0.247 q 0.2309,-0.8272 0.7949,-1.2246 0.5639,-0.3975 1.6758,-0.3975 1.0097,0 1.5039,0.239 0.4941,0.239 0.6955,0.6069 0.2014,0.368 0.2014,1.3509 l -0.0161,1.7617 q 0,0.7519 0.0725,1.1091 0.0725,0.3572 0.2713,0.7654 h -1.4932 q -0.0591,-0.1504 -0.145,-0.4458 -0.0376,-0.1343 -0.0537,-0.1772 -0.3867,0.3759 -0.8272,0.5639 -0.4404,0.188 -0.9399,0.188 -0.8809,0 -1.3884,-0.478 -0.5076,-0.478 -0.5076,-1.2085 0,-0.4834 0.2309,-0.8621 0.231,-0.3786 0.6473,-0.5801 0.4162,-0.2014 1.2004,-0.3518 1.0581,-0.1987 1.4663,-0.3706 v -0.1504 q 0,-0.435 -0.2148,-0.6203 -0.2149,-0.1853 -0.8111,-0.1853 -0.4028,0 -0.6284,0.1584 -0.2256,0.1585 -0.3652,0.5559 z m 2.0195,1.2246 q -0.29,0.0967 -0.9184,0.231 -0.6285,0.1343 -0.8218,0.2632 -0.2954,0.2095 -0.2954,0.5317 0,0.3169 0.2363,0.5479 0.2363,0.2309 0.6016,0.2309 0.4082,0 0.7788,-0.2685 0.2739,-0.2041 0.3598,-0.4995 0.0591,-0.1934 0.0591,-0.7359 z M 232.978,300 h -1.5092 v -2.9111 q 0,-0.9239 -0.0967,-1.1951 -0.0967,-0.2712 -0.3142,-0.4216 -0.2176,-0.1504 -0.5237,-0.1504 -0.3921,0 -0.7036,0.2148 -0.3116,0.2149 -0.427,0.5694 -0.1155,0.3544 -0.1155,1.3105 V 300 h -1.5093 v -5.7041 h 1.4019 v 0.8379 q 0.7465,-0.9668 1.8798,-0.9668 0.4996,0 0.9131,0.1799 0.4136,0.18 0.6258,0.4593 0.2121,0.2792 0.2954,0.6337 0.0832,0.3545 0.0832,1.0152 z m 7.043,0 h -1.4019 v -0.8379 q -0.3491,0.4888 -0.8244,0.7278 -0.4754,0.239 -0.9588,0.239 -0.9829,0 -1.6838,-0.7922 -0.7009,-0.7923 -0.7009,-2.2102 0,-1.4502 0.6821,-2.2049 0.6821,-0.7546 1.7241,-0.7546 0.9561,0 1.6543,0.7949 v -2.8359 h 1.5093 z m -4.0283,-2.9756 q 0,0.9131 0.2524,1.3213 0.3653,0.5908 1.0205,0.5908 0.521,0 0.8863,-0.4431 0.3652,-0.4431 0.3652,-1.324 0,-0.9829 -0.3545,-1.4152 -0.3545,-0.4324 -0.9077,-0.4324 -0.5371,0 -0.8997,0.427 -0.3625,0.427 -0.3625,1.2756 z m 10.8457,0.0806 1.5415,0.4888 q -0.3545,1.289 -1.179,1.9147 -0.8244,0.6258 -2.092,0.6258 -1.5684,0 -2.5781,-1.0716 -1.0098,-1.0715 -1.0098,-2.9299 0,-1.9658 1.0151,-3.0535 1.0152,-1.0876 2.6695,-1.0876 1.4448,0 2.3471,0.854 0.5371,0.5049 0.8057,1.4502 l -1.5737,0.376 q -0.1397,-0.6123 -0.5828,-0.9668 -0.4431,-0.3545 -1.0769,-0.3545 -0.8755,0 -1.4207,0.6284 -0.5451,0.6284 -0.5451,2.0356 0,1.4932 0.5371,2.127 0.5371,0.6338 1.3965,0.6338 0.6338,0 1.0903,-0.4028 0.4565,-0.4029 0.6553,-1.2676 z m 4.4551,-4.979 v 2.895 q 0.7304,-0.854 1.7456,-0.854 0.521,0 0.9399,0.1934 0.4189,0.1933 0.6311,0.4941 0.2122,0.3008 0.29,0.666 0.0779,0.3652 0.0779,1.1333 V 300 h -1.5092 v -3.0132 q 0,-0.897 -0.086,-1.1387 -0.0859,-0.2417 -0.3035,-0.384 -0.2175,-0.1423 -0.5451,-0.1423 -0.376,0 -0.6714,0.1826 -0.2954,0.1826 -0.4324,0.5505 -0.1369,0.368 -0.1369,1.0877 V 300 h -1.5093 v -7.874 z m 6.624,3.9101 -1.3696,-0.247 q 0.2309,-0.8272 0.7949,-1.2246 0.5639,-0.3975 1.6758,-0.3975 1.0097,0 1.5039,0.239 0.4941,0.239 0.6955,0.6069 0.2014,0.368 0.2014,1.3509 l -0.0161,1.7617 q 0,0.7519 0.0725,1.1091 0.0725,0.3572 0.2713,0.7654 h -1.4932 q -0.0591,-0.1504 -0.145,-0.4458 -0.0376,-0.1343 -0.0537,-0.1772 -0.3867,0.3759 -0.8272,0.5639 -0.4404,0.188 -0.9399,0.188 -0.8809,0 -1.3884,-0.478 -0.5076,-0.478 -0.5076,-1.2085 0,-0.4834 0.2309,-0.8621 0.231,-0.3786 0.6473,-0.5801 0.4162,-0.2014 1.2004,-0.3518 1.0581,-0.1987 1.4663,-0.3706 v -0.1504 q 0,-0.435 -0.2148,-0.6203 -0.2149,-0.1853 -0.8111,-0.1853 -0.4028,0 -0.6284,0.1584 -0.2256,0.1585 -0.3652,0.5559 z m 2.0195,1.2246 q -0.29,0.0967 -0.9184,0.231 -0.6285,0.1343 -0.8218,0.2632 -0.2954,0.2095 -0.2954,0.5317 0,0.3169 0.2363,0.5479 0.2363,0.2309 0.6016,0.2309 0.4082,0 0.7788,-0.2685 0.2739,-0.2041 0.3598,-0.4995 0.0591,-0.1934 0.0591,-0.7359 z M 267.978,300 h -1.5092 v -2.9111 q 0,-0.9239 -0.0967,-1.1951 -0.0967,-0.2712 -0.3142,-0.4216 -0.2176,-0.1504 -0.5237,-0.1504 -0.3921,0 -0.7036,0.2148 -0.3116,0.2149 -0.427,0.5694 -0.1155,0.3544 -0.1155,1.3105 V 300 h -1.5093 v -5.7041 h 1.4019 v 0.8379 q 0.7465,-0.9668 1.8798,-0.9668 0.4996,0 0.9131,0.1799 0.4136,0.18 0.6258,0.4593 0.2121,0.2792 0.2954,0.6337 0.0832,0.3545 0.0832,1.0152 z m 7,0 h -1.5092 v -2.9111 q 0,-0.9239 -0.0967,-1.1951 -0.0967,-0.2712 -0.3142,-0.4216 -0.2176,-0.1504 -0.5237,-0.1504 -0.3921,0 -0.7036,0.2148 -0.3116,0.2149 -0.427,0.5694 -0.1155,0.3544 -0.1155,1.3105 V 300 h -1.5093 v -5.7041 h 1.4019 v 0.8379 q 0.7465,-0.9668 1.8798,-0.9668 0.4996,0 0.9131,0.1799 0.4136,0.18 0.6258,0.4593 0.2121,0.2792 0.2954,0.6337 0.0832,0.3545 0.0832,1.0152 z m 5.1148,-1.8154 1.5039,0.2524 q -0.2901,0.8272 -0.9158,1.2595 -0.6257,0.4324 -1.5657,0.4324 -1.4878,0 -2.2021,-0.9722 -0.564,-0.7788 -0.564,-1.9658 0,-1.418 0.7412,-2.2209 0.7412,-0.803 1.8745,-0.803 1.273,0 2.0088,0.8406 0.7359,0.8405 0.7036,2.5754 h -3.7812 q 0.0161,0.6714 0.3652,1.0447 0.3492,0.3733 0.8701,0.3733 0.3545,0 0.5962,-0.1934 0.2417,-0.1933 0.3653,-0.623 z m 0.0859,-1.5254 q -0.0161,-0.6553 -0.3384,-0.9964 -0.3222,-0.341 -0.7841,-0.341 -0.4942,0 -0.8165,0.3598 -0.3222,0.3599 -0.3168,0.9776 z M 282.7896,300 v -7.874 h 1.5092 V 300 Z"
     clip-path="url(#clipPath1)"
     id="path4767"
     inkscape:connector-curvature="0"
     style="font-weight:bold;font-size:medium;stroke:none;stroke-linecap:butt;stroke-linejoin:round;text-rendering:optimizeLegibility"
     transform="translate(-118.5,-167.5)" />
  <path
     d="m 235,270 1,17"
     clip-path="url(#clipPath1)"
     id="path4771"
     inkscape:connector-curvature="0"
     style="font-weight:bold;font-size:medium;fill:none;stroke:#424242;stroke-linecap:butt;stroke-linejoin:round;stroke-dasharray:10;text-rendering:geometricPrecision"
     transform="translate(-118.5,-167.5)" />
  <path
     d="m 240.4668,259.2393 1.042,0.2631 q -0.3276,1.2837 -1.179,1.9578 -0.8513,0.6741 -2.0813,0.6741 -1.2729,0 -2.0705,-0.5183 -0.7976,-0.5183 -1.2139,-1.5013 -0.4162,-0.9829 -0.4162,-2.1108 0,-1.23 0.4699,-2.1457 0.47,-0.9158 1.3374,-1.3912 0.8675,-0.4753 1.9094,-0.4753 1.1817,0 1.9874,0.6016 0.8056,0.6015 1.1225,1.6919 l -1.0259,0.2417 q -0.2739,-0.8594 -0.7949,-1.2515 -0.521,-0.3921 -1.3105,-0.3921 -0.9078,0 -1.5174,0.4351 -0.6096,0.435 -0.8567,1.1682 -0.247,0.7331 -0.247,1.5119 0,1.0044 0.2927,1.7537 0.2927,0.7493 0.9104,1.1199 0.6177,0.3706 1.3374,0.3706 0.8755,0 1.4824,-0.5049 0.607,-0.5049 0.8218,-1.4985 z m 1.8984,-0.0914 q 0,-1.5844 0.8809,-2.3471 0.7358,-0.6338 1.7939,-0.6338 1.1763,0 1.9229,0.7707 0.7466,0.7708 0.7466,2.1297 0,1.1011 -0.3303,1.7322 -0.3304,0.6311 -0.9615,0.9802 -0.6311,0.3491 -1.3777,0.3491 -1.1977,0 -1.9362,-0.7681 -0.7386,-0.768 -0.7386,-2.2129 z m 0.9937,0 q 0,1.0958 0.478,1.6409 0.478,0.5452 1.2031,0.5452 0.7198,0 1.1978,-0.5479 0.478,-0.5478 0.478,-1.6704 0,-1.0581 -0.4807,-1.6032 -0.4807,-0.5452 -1.1951,-0.5452 -0.7251,0 -1.2031,0.5425 -0.478,0.5424 -0.478,1.6381 z M 248.7251,262 v -5.7041 h 0.8647 v 0.8003 q 0.2686,-0.419 0.7144,-0.6741 0.4458,-0.2551 1.0151,-0.2551 0.6338,0 1.0393,0.2632 0.4056,0.2632 0.5721,0.7358 0.6767,-0.999 1.7617,-0.999 0.8486,0 1.3052,0.47 0.4565,0.4699 0.4565,1.4475 V 262 h -0.9614 v -3.5933 q 0,-0.58 -0.094,-0.8352 -0.094,-0.2551 -0.3411,-0.4109 -0.2471,-0.1557 -0.5801,-0.1557 -0.6015,0 -0.999,0.4001 -0.3974,0.4002 -0.3974,1.281 V 262 h -0.9668 v -3.7061 q 0,-0.6445 -0.2364,-0.9668 -0.2363,-0.3222 -0.7734,-0.3222 -0.4082,0 -0.7546,0.2148 -0.3465,0.2149 -0.5022,0.6284 -0.1558,0.4136 -0.1558,1.1924 V 262 Z m 9,0 v -5.7041 h 0.8647 v 0.8003 q 0.2686,-0.419 0.7144,-0.6741 0.4458,-0.2551 1.0151,-0.2551 0.6338,0 1.0393,0.2632 0.4056,0.2632 0.5721,0.7358 0.6767,-0.999 1.7617,-0.999 0.8486,0 1.3052,0.47 0.4565,0.4699 0.4565,1.4475 V 262 h -0.9614 v -3.5933 q 0,-0.58 -0.094,-0.8352 -0.094,-0.2551 -0.3411,-0.4109 -0.2471,-0.1557 -0.5801,-0.1557 -0.6015,0 -0.999,0.4001 -0.3974,0.4002 -0.3974,1.281 V 262 h -0.9668 v -3.7061 q 0,-0.6445 -0.2364,-0.9668 -0.2363,-0.3222 -0.7734,-0.3222 -0.4082,0 -0.7546,0.2148 -0.3465,0.2149 -0.5022,0.6284 -0.1558,0.4136 -0.1558,1.1924 V 262 Z m 12.7222,-0.7036 q -0.5371,0.4565 -1.034,0.6445 -0.4968,0.188 -1.0661,0.188 -0.94,0 -1.4449,-0.4592 -0.5048,-0.4593 -0.5048,-1.1736 0,-0.419 0.1906,-0.7654 0.1907,-0.3464 0.4995,-0.5559 0.3089,-0.2095 0.6956,-0.3169 0.2847,-0.0752 0.8594,-0.145 1.1709,-0.1397 1.7241,-0.333 0.005,-0.1987 0.005,-0.2525 0,-0.5908 -0.274,-0.8325 -0.3706,-0.3276 -1.101,-0.3276 -0.6822,0 -1.0071,0.239 -0.325,0.239 -0.4807,0.8459 l -0.9453,-0.1289 q 0.1289,-0.6069 0.4243,-0.9802 0.2954,-0.3733 0.854,-0.5747 0.5586,-0.2014 1.2944,-0.2014 0.7305,0 1.187,0.1719 0.4566,0.1718 0.6714,0.4323 0.2149,0.2605 0.3008,0.658 0.0483,0.2471 0.0483,0.8916 v 1.2891 q 0,1.3481 0.0618,1.7053 0.0618,0.3572 0.2444,0.6848 h -1.0098 q -0.1504,-0.3008 -0.1933,-0.7036 z m -0.0806,-2.1592 q -0.5264,0.2149 -1.5791,0.3652 -0.5962,0.086 -0.8433,0.1934 -0.247,0.1074 -0.3813,0.3142 -0.1343,0.2068 -0.1343,0.4592 0,0.3868 0.2927,0.6446 0.2928,0.2578 0.8567,0.2578 0.5586,0 0.9937,-0.2444 0.435,-0.2444 0.6391,-0.6687 0.1558,-0.3276 0.1558,-0.9668 z M 272.7251,262 v -5.7041 h 0.8701 v 0.811 q 0.6284,-0.9399 1.8154,-0.9399 0.5157,0 0.948,0.1853 0.4324,0.1853 0.6473,0.4861 0.2148,0.3008 0.3007,0.7143 0.0538,0.2686 0.0538,0.94 V 262 h -0.9668 v -3.4697 q 0,-0.5908 -0.1128,-0.8836 -0.1128,-0.2927 -0.4002,-0.4673 -0.2873,-0.1745 -0.6741,-0.1745 -0.6176,0 -1.0661,0.3921 -0.4485,0.3921 -0.4485,1.4878 V 262 Z m 9.7007,0 v -0.7197 q -0.5425,0.8486 -1.5952,0.8486 -0.6822,0 -1.2542,-0.376 -0.572,-0.3759 -0.8862,-1.05 -0.3142,-0.6741 -0.3142,-1.5496 0,-0.854 0.2846,-1.5495 0.2847,-0.6956 0.854,-1.0662 0.5694,-0.3706 1.273,-0.3706 0.5156,0 0.9185,0.2175 0.4028,0.2176 0.6552,0.5667 v -2.8252 h 0.9615 V 262 Z m -3.0562,-2.8467 q 0,1.0957 0.4619,1.6382 0.462,0.5425 1.0904,0.5425 0.6338,0 1.0769,-0.5183 0.4431,-0.5183 0.4431,-1.5818 0,-1.1709 -0.4512,-1.7188 -0.4511,-0.5478 -1.1118,-0.5478 -0.6445,0 -1.0769,0.5264 -0.4324,0.5263 -0.4324,1.6596 z m 11.0972,0.086 1.042,0.2631 q -0.3276,1.2837 -1.179,1.9578 -0.8513,0.6741 -2.0813,0.6741 -1.2729,0 -2.0705,-0.5183 -0.7976,-0.5183 -1.2139,-1.5013 -0.4162,-0.9829 -0.4162,-2.1108 0,-1.23 0.4699,-2.1457 0.47,-0.9158 1.3374,-1.3912 0.8675,-0.4753 1.9094,-0.4753 1.1817,0 1.9874,0.6016 0.8056,0.6015 1.1225,1.6919 l -1.0259,0.2417 q -0.2739,-0.8594 -0.7949,-1.2515 -0.521,-0.3921 -1.3105,-0.3921 -0.9078,0 -1.5174,0.4351 -0.6096,0.435 -0.8567,1.1682 -0.247,0.7331 -0.247,1.5119 0,1.0044 0.2927,1.7537 0.2927,0.7493 0.9104,1.1199 0.6177,0.3706 1.3374,0.3706 0.8755,0 1.4824,-0.5049 0.607,-0.5049 0.8218,-1.4985 z m 1.8984,-0.0914 q 0,-1.5844 0.8809,-2.3471 0.7358,-0.6338 1.7939,-0.6338 1.1763,0 1.9229,0.7707 0.7466,0.7708 0.7466,2.1297 0,1.1011 -0.3303,1.7322 -0.3304,0.6311 -0.9615,0.9802 -0.6311,0.3491 -1.3777,0.3491 -1.1977,0 -1.9362,-0.7681 -0.7386,-0.768 -0.7386,-2.2129 z m 0.9937,0 q 0,1.0958 0.478,1.6409 0.478,0.5452 1.2031,0.5452 0.7198,0 1.1978,-0.5479 0.478,-0.5478 0.478,-1.6704 0,-1.0581 -0.4807,-1.6032 -0.4807,-0.5452 -1.1951,-0.5452 -0.7251,0 -1.2031,0.5425 -0.478,0.5424 -0.478,1.6381 z M 302.4258,262 v -0.7197 q -0.5425,0.8486 -1.5952,0.8486 -0.6822,0 -1.2542,-0.376 -0.572,-0.3759 -0.8862,-1.05 -0.3142,-0.6741 -0.3142,-1.5496 0,-0.854 0.2846,-1.5495 0.2847,-0.6956 0.854,-1.0662 0.5694,-0.3706 1.273,-0.3706 0.5156,0 0.9185,0.2175 0.4028,0.2176 0.6552,0.5667 v -2.8252 h 0.9615 V 262 Z m -3.0562,-2.8467 q 0,1.0957 0.4619,1.6382 0.462,0.5425 1.0904,0.5425 0.6338,0 1.0769,-0.5183 0.4431,-0.5183 0.4431,-1.5818 0,-1.1709 -0.4512,-1.7188 -0.4511,-0.5478 -1.1118,-0.5478 -0.6445,0 -1.0769,0.5264 -0.4324,0.5263 -0.4324,1.6596 z m 9.2603,1.0098 0.999,0.1235 q -0.2363,0.8755 -0.8755,1.3589 -0.6391,0.4834 -1.6328,0.4834 -1.2515,0 -1.9846,-0.7707 -0.7332,-0.7708 -0.7332,-2.1619 0,-1.4395 0.7412,-2.2344 0.7413,-0.7949 1.9229,-0.7949 1.144,0 1.8691,0.7788 0.7251,0.7788 0.7251,2.1914 0,0.0859 -0.005,0.2578 h -4.2539 q 0.0537,0.94 0.5317,1.4395 0.478,0.4995 1.1924,0.4995 0.5317,0 0.9077,-0.2793 0.376,-0.2793 0.5962,-0.8916 z m -3.1743,-1.563 h 3.185 q -0.0644,-0.7197 -0.3652,-1.0796 -0.4619,-0.5586 -1.1978,-0.5586 -0.666,0 -1.1198,0.4458 -0.4539,0.4458 -0.5022,1.1924 z"
     clip-path="url(#clipPath1)"
     id="path4775"
     inkscape:connector-curvature="0"
     style="font-size:medium;stroke:none;stroke-linecap:butt;stroke-linejoin:round;text-rendering:optimizeLegibility"
     transform="translate(-118.5,-167.5)" />
  <path
     d="m 166.8701,262 v -7.874 h 5.6934 v 0.9292 h -4.6514 v 2.4116 h 4.356 v 0.9238 h -4.356 v 2.6802 h 4.834 V 262 Z m 8.4395,0 -2.17,-5.7041 h 1.0206 l 1.2246,3.416 q 0.1987,0.5532 0.3652,1.1494 0.1289,-0.4511 0.3599,-1.0849 l 1.2675,-3.4805 h 0.9937 L 176.2119,262 Z m 8.3203,-1.8369 0.999,0.1235 q -0.2363,0.8755 -0.8755,1.3589 -0.6391,0.4834 -1.6328,0.4834 -1.2515,0 -1.9846,-0.7707 -0.7332,-0.7708 -0.7332,-2.1619 0,-1.4395 0.7412,-2.2344 0.7413,-0.7949 1.9229,-0.7949 1.144,0 1.8691,0.7788 0.7251,0.7788 0.7251,2.1914 0,0.0859 -0.005,0.2578 h -4.2539 q 0.0537,0.94 0.5317,1.4395 0.478,0.4995 1.1924,0.4995 0.5317,0 0.9077,-0.2793 0.376,-0.2793 0.5962,-0.8916 z m -3.1743,-1.563 h 3.185 q -0.0644,-0.7197 -0.3652,-1.0796 -0.4619,-0.5586 -1.1978,-0.5586 -0.666,0 -1.1198,0.4458 -0.4539,0.4458 -0.5022,1.1924 z M 185.7251,262 v -5.7041 h 0.8701 v 0.811 q 0.6284,-0.9399 1.8154,-0.9399 0.5157,0 0.948,0.1853 0.4324,0.1853 0.6473,0.4861 0.2148,0.3008 0.3007,0.7143 0.0538,0.2686 0.0538,0.94 V 262 h -0.9668 v -3.4697 q 0,-0.5908 -0.1128,-0.8836 -0.1128,-0.2927 -0.4002,-0.4673 -0.2873,-0.1745 -0.6741,-0.1745 -0.6176,0 -1.0661,0.3921 -0.4485,0.3921 -0.4485,1.4878 V 262 Z m 8.1108,-0.8647 0.1397,0.854 q -0.4082,0.0859 -0.7305,0.0859 -0.5263,0 -0.8164,-0.1665 -0.29,-0.1665 -0.4082,-0.4378 -0.1182,-0.2712 -0.1182,-1.1413 v -3.2817 h -0.7089 v -0.752 h 0.7089 v -1.4126 l 0.9615,-0.5801 v 1.9927 h 0.9721 v 0.752 h -0.9721 v 3.3354 q 0,0.4136 0.051,0.5317 0.051,0.1182 0.1665,0.188 0.1155,0.0699 0.3303,0.0699 0.1612,0 0.4243,-0.0376 z m 6.6309,-1.896 1.042,0.2631 q -0.3276,1.2837 -1.179,1.9578 -0.8513,0.6741 -2.0813,0.6741 -1.2729,0 -2.0705,-0.5183 -0.7976,-0.5183 -1.2139,-1.5013 -0.4162,-0.9829 -0.4162,-2.1108 0,-1.23 0.4699,-2.1457 0.47,-0.9158 1.3374,-1.3912 0.8675,-0.4753 1.9094,-0.4753 1.1817,0 1.9874,0.6016 0.8056,0.6015 1.1225,1.6919 l -1.0259,0.2417 q -0.2739,-0.8594 -0.7949,-1.2515 -0.521,-0.3921 -1.3105,-0.3921 -0.9078,0 -1.5174,0.4351 -0.6096,0.435 -0.8567,1.1682 -0.247,0.7331 -0.247,1.5119 0,1.0044 0.2927,1.7537 0.2927,0.7493 0.9104,1.1199 0.6177,0.3706 1.3374,0.3706 0.8755,0 1.4824,-0.5049 0.607,-0.5049 0.8218,-1.4985 z m 1.8984,-0.0914 q 0,-1.5844 0.8809,-2.3471 0.7358,-0.6338 1.7939,-0.6338 1.1763,0 1.9229,0.7707 0.7466,0.7708 0.7466,2.1297 0,1.1011 -0.3303,1.7322 -0.3304,0.6311 -0.9615,0.9802 -0.6311,0.3491 -1.3777,0.3491 -1.1977,0 -1.9362,-0.7681 -0.7386,-0.768 -0.7386,-2.2129 z m 0.9937,0 q 0,1.0958 0.478,1.6409 0.478,0.5452 1.2031,0.5452 0.7198,0 1.1978,-0.5479 0.478,-0.5478 0.478,-1.6704 0,-1.0581 -0.4807,-1.6032 -0.4807,-0.5452 -1.1951,-0.5452 -0.7251,0 -1.2031,0.5425 -0.478,0.5424 -0.478,1.6381 z M 212.4258,262 v -0.7197 q -0.5425,0.8486 -1.5952,0.8486 -0.6822,0 -1.2542,-0.376 -0.572,-0.3759 -0.8862,-1.05 -0.3142,-0.6741 -0.3142,-1.5496 0,-0.854 0.2846,-1.5495 0.2847,-0.6956 0.854,-1.0662 0.5694,-0.3706 1.273,-0.3706 0.5156,0 0.9185,0.2175 0.4028,0.2176 0.6552,0.5667 v -2.8252 h 0.9615 V 262 Z m -3.0562,-2.8467 q 0,1.0957 0.4619,1.6382 0.462,0.5425 1.0904,0.5425 0.6338,0 1.0769,-0.5183 0.4431,-0.5183 0.4431,-1.5818 0,-1.1709 -0.4512,-1.7188 -0.4511,-0.5478 -1.1118,-0.5478 -0.6445,0 -1.0769,0.5264 -0.4324,0.5263 -0.4324,1.6596 z m 9.2603,1.0098 0.999,0.1235 q -0.2363,0.8755 -0.8755,1.3589 -0.6391,0.4834 -1.6328,0.4834 -1.2515,0 -1.9846,-0.7707 -0.7332,-0.7708 -0.7332,-2.1619 0,-1.4395 0.7412,-2.2344 0.7413,-0.7949 1.9229,-0.7949 1.144,0 1.8691,0.7788 0.7251,0.7788 0.7251,2.1914 0,0.0859 -0.005,0.2578 h -4.2539 q 0.0537,0.94 0.5317,1.4395 0.478,0.4995 1.1924,0.4995 0.5317,0 0.9077,-0.2793 0.376,-0.2793 0.5962,-0.8916 z m -3.1743,-1.563 h 3.185 q -0.0644,-0.7197 -0.3652,-1.0796 -0.4619,-0.5586 -1.1978,-0.5586 -0.666,0 -1.1198,0.4458 -0.4539,0.4458 -0.5022,1.1924 z"
     clip-path="url(#clipPath1)"
     id="path4777"
     inkscape:connector-curvature="0"
     style="font-size:medium;stroke:none;stroke-linecap:butt;stroke-linejoin:round;text-rendering:optimizeLegibility"
     transform="translate(-118.5,-167.5)" />
  <polygon
     clip-path="url(#clipPath1)"
     points="291,265 300,270 291,275 "
     id="polygon4779"
     style="font-size:medium;stroke:none;stroke-linecap:butt;stroke-linejoin:round;text-rendering:geometricPrecision"
     transform="translate(-118.5,-167.5)" />
  <polygon
     clip-path="url(#clipPath1)"
     points="291,265 300,270 291,275 "
     id="polygon4781"
     style="font-size:medium;fill:none;stroke-linecap:butt;stroke-linejoin:round;text-rendering:geometricPrecision"
     transform="translate(-118.5,-167.5)" />
  <polygon
     clip-path="url(#clipPath1)"
     points="180,275 171,270 180,265 "
     id="polygon4783"
     style="font-size:medium;stroke:none;stroke-linecap:butt;stroke-linejoin:round;text-rendering:geometricPrecision"
     transform="translate(-118.5,-167.5)" />
  <polygon
     clip-path="url(#clipPath1)"
     points="180,275 171,270 180,265 "
     id="polygon4785"
     style="font-size:medium;fill:none;stroke-linecap:butt;stroke-linejoin:round;text-rendering:geometricPrecision"
     transform="translate(-118.5,-167.5)" />
  <path
     d="m 154,192 v 32"
     clip-path="url(#clipPath1)"
     id="path4787"
     inkscape:connector-curvature="0"
     style="font-size:medium;fill:none;stroke:#424242;stroke-linecap:butt;stroke-linejoin:round;text-rendering:geometricPrecision"
     transform="translate(-118.5,-167.5)" />
  <path
     d="m 235,270 1,17"
     clip-path="url(#clipPath1)"
     id="path4791"
     inkscape:connector-curvature="0"
     style="font-size:medium;fill:none;stroke:#424242;stroke-linecap:butt;stroke-linejoin:round;stroke-dasharray:10;text-rendering:geometricPrecision"
     transform="translate(-118.5,-167.5)" />
</svg>
